<?xml version="1.0" standalone="no"?>
<!DOCTYPE svg PUBLIC "-//W3C//DTD SVG 20010904//EN"
 "http://www.w3.org/TR/2001/REC-SVG-20010904/DTD/svg10.dtd">
<svg version="1.0" xmlns="http://www.w3.org/2000/svg"
 width="708.000000pt" height="1110.000000pt" viewBox="0 0 708.000000 1110.000000"
 preserveAspectRatio="xMidYMid meet">

<g transform="translate(0.000000,1110.000000) scale(0.100000,-0.100000)"
fill="#000000" stroke="none">
<path d="M0 7871 l0 -3229 22 -5 c12 -3 29 -2 38 3 10 5 42 11 71 14 30 2 70
9 90 15 20 6 52 11 70 11 84 -2 105 2 128 23 17 15 25 18 28 10 3 -7 11 -13
19 -13 8 0 14 -6 14 -12 0 -10 3 -9 9 1 5 7 14 11 20 7 7 -4 9 -1 5 7 -4 11 2
15 20 13 24 -1 31 -8 27 -30 -2 -9 270 -2 315 8 12 2 45 14 73 27 37 15 55 19
63 11 17 -17 125 32 163 74 6 6 37 17 70 24 137 29 175 24 175 -26 0 -31 13
-30 34 1 9 14 24 25 33 25 13 0 14 -3 5 -12 -22 -22 -13 -37 21 -36 17 1 35 6
39 12 4 6 10 7 14 3 4 -3 -4 -16 -17 -27 l-24 -21 34 5 c25 5 40 1 53 -11 19
-17 20 -16 38 7 19 25 19 25 0 34 -25 11 -26 26 -2 27 9 0 -2 7 -26 16 -41 14
-52 36 -12 26 12 -3 20 0 20 7 0 7 8 10 20 7 10 -3 24 1 31 9 14 17 76 18 82
2 4 -10 6 -10 6 0 1 13 61 18 61 5 0 -5 10 -9 23 -9 63 -4 80 -9 88 -31 5 -13
13 -23 19 -23 5 0 18 -8 28 -17 24 -24 68 -47 119 -63 36 -11 54 -11 118 1 49
10 80 12 91 6 11 -7 24 -6 36 2 21 13 112 18 144 7 26 -8 32 -28 24 -76 -5
-37 -3 -35 -155 -105 -46 -22 -78 -27 -178 -30 -120 -3 -185 -14 -200 -34 -7
-9 -21 -17 -32 -19 -11 -2 -25 -10 -31 -18 -7 -8 -43 -18 -88 -24 -43 -5 -81
-12 -85 -15 -5 -2 -34 -5 -65 -6 -31 -1 -60 -7 -66 -13 -13 -17 -395 -13 -415
4 -9 7 -18 10 -22 6 -3 -3 0 -6 8 -6 24 -1 -11 -16 -56 -26 -53 -10 -64 -11
-170 -18 -49 -3 -153 -9 -230 -15 -88 -6 -146 -6 -157 0 -12 6 -25 6 -37 0
-13 -7 -29 -7 -50 0 -25 9 -36 8 -56 -5 -28 -19 -122 -16 -117 3 1 6 -13 11
-33 11 -28 0 -35 4 -35 20 0 11 5 20 10 20 6 0 10 5 10 12 0 6 -8 3 -20 -7
-11 -10 -40 -19 -67 -21 -27 -2 -69 -6 -95 -9 -27 -3 -48 0 -50 6 -2 5 -11 7
-21 4 -14 -6 -17 -21 -17 -102 l0 -96 97 6 c120 8 184 13 243 21 25 4 131 11
235 16 105 6 201 12 215 14 40 7 310 19 368 17 30 -1 60 3 67 9 7 6 61 14 119
17 90 5 106 3 106 -10 0 -14 -28 -29 -85 -43 -16 -4 -32 -8 -35 -9 -3 0 -30
-13 -60 -27 -30 -14 -71 -29 -90 -33 -19 -4 -42 -13 -50 -20 -8 -7 -38 -20
-66 -29 -27 -9 -74 -32 -103 -50 -29 -19 -83 -42 -119 -51 -37 -9 -99 -32
-138 -51 -39 -19 -78 -34 -87 -34 -8 0 -58 -12 -109 -26 -51 -14 -112 -30
-136 -35 -23 -4 -51 -13 -61 -19 -11 -5 -28 -10 -38 -10 -21 0 -168 -56 -231
-89 l-42 -21 0 -499 0 -499 24 11 c13 7 22 15 20 19 -3 5 2 8 10 8 8 0 19 6
23 13 10 17 81 44 115 46 22 1 28 -4 28 -19 0 -23 6 -24 40 -5 27 15 61 20 59
8 -5 -29 6 -29 59 2 47 28 70 35 125 38 44 3 74 10 86 21 20 18 51 21 51 5 0
-5 8 -9 18 -8 9 2 32 -5 51 -15 31 -16 35 -17 43 -2 7 13 13 14 30 5 15 -8 22
-8 28 0 4 7 18 13 31 15 13 1 34 8 46 14 12 7 28 9 37 6 8 -3 27 4 42 15 15
12 33 21 40 21 7 0 17 8 23 17 5 10 13 15 16 11 4 -4 15 2 25 14 26 33 38 15
45 -75 9 -106 -9 -278 -39 -382 -42 -143 -60 -254 -58 -359 1 -58 7 -105 14
-113 7 -9 13 -74 16 -176 4 -183 -9 -261 -53 -304 -14 -14 -25 -22 -25 -18 0
4 -7 2 -15 -5 -8 -7 -15 -23 -15 -37 0 -14 -4 -21 -10 -18 -5 3 -10 -1 -10 -9
0 -9 -9 -16 -20 -16 -11 0 -20 -7 -20 -16 0 -8 -4 -13 -9 -9 -5 3 -11 -3 -14
-12 -3 -13 -7 -8 -12 15 -8 35 -21 42 -28 14 -4 -15 -5 -15 -6 2 -1 18 -2 19
-21 1 -11 -10 -23 -16 -26 -13 -3 4 -19 2 -35 -2 -24 -7 -31 -5 -40 11 -5 11
-14 17 -18 14 -14 -8 -71 25 -71 41 0 8 -4 14 -10 14 -5 0 -10 -6 -10 -12 0
-8 -3 -9 -8 -3 -4 6 -18 12 -32 13 -14 2 -30 8 -36 13 -7 6 -21 6 -35 0 -30
-11 -75 -50 -71 -62 1 -5 -2 -9 -6 -9 -5 0 -22 -11 -38 -25 -16 -14 -37 -25
-46 -25 -10 0 -18 -6 -18 -12 -1 -8 -6 -6 -14 5 -10 13 -16 15 -21 7 -6 -9 -9
-9 -15 0 -13 21 -28 2 -22 -27 2 -16 1 -25 -3 -21 -10 10 -37 -11 -29 -23 3
-5 -2 -9 -11 -9 -9 0 -13 5 -9 11 4 8 0 8 -15 0 -15 -8 -27 -9 -40 -1 -33 17
-44 12 -37 -15 5 -20 3 -25 -11 -25 -16 -1 -16 -2 2 -12 19 -12 18 -13 -10
-18 -28 -5 -30 -8 -27 -43 3 -27 -1 -39 -12 -43 -9 -3 -13 -11 -9 -18 4 -6 8
-29 8 -50 0 -22 5 -41 12 -43 8 -3 13 4 13 17 0 17 3 20 13 12 6 -5 29 -10 50
-10 21 0 44 -6 52 -12 19 -16 19 -51 0 -76 -17 -22 -20 -60 -5 -69 6 -3 10
-16 10 -29 0 -19 -4 -22 -30 -18 -18 3 -30 0 -30 -7 0 -6 7 -11 16 -11 8 0 13
-4 10 -9 -3 -5 -2 -29 3 -54 9 -49 -2 -75 -47 -118 -12 -11 -22 -29 -22 -40 0
-19 -23 -61 -47 -87 -10 -10 -13 -81 -13 -293 l0 -279 3161 0 3161 0 -6 28
c-3 15 -8 68 -10 118 -5 103 -13 144 -29 144 -6 0 -7 3 -4 7 4 3 2 12 -4 19
-7 8 -7 14 1 19 5 3 10 15 10 26 0 11 -4 18 -9 15 -15 -10 -41 5 -41 24 0 10
7 37 15 61 13 36 14 45 2 54 -7 5 -13 20 -13 32 0 17 3 19 13 11 10 -8 13 -6
13 5 0 23 19 31 27 11 4 -10 0 -22 -11 -29 -13 -10 -14 -15 -5 -21 7 -4 22 6
39 26 16 19 32 30 38 26 16 -10 15 -33 -1 -39 -7 -4 -8 -6 -1 -6 6 -1 17 6 24
14 19 23 43 19 35 -5 -8 -25 13 -27 22 -2 4 9 12 21 20 25 17 11 17 31 -1 24
-10 -4 -13 5 -12 37 1 23 5 46 8 51 3 6 2 35 -3 65 -13 92 -11 120 8 120 15 0
14 2 -3 15 -27 20 -32 19 -39 -15 -8 -35 -21 -46 -39 -31 -7 6 -15 8 -18 5 -3
-3 -9 11 -12 31 -4 19 -10 33 -15 31 -11 -7 -8 37 4 50 7 8 18 2 38 -22 28
-33 49 -36 72 -10 24 26 56 38 71 25 23 -19 37 2 25 34 -7 17 -7 28 -1 32 16
10 -16 36 -34 29 -9 -3 -13 -10 -10 -15 3 -5 1 -9 -4 -9 -19 0 -23 34 -6 47
10 7 12 13 6 13 -7 0 -12 7 -12 15 0 8 6 15 12 15 7 0 3 6 -8 14 -29 21 -47
89 -46 175 1 55 -4 87 -19 122 -12 26 -18 52 -15 58 3 5 2 11 -3 13 -5 1 -12
27 -16 56 -6 44 -4 52 9 52 10 0 16 8 16 21 0 22 -22 49 -40 49 -8 0 -8 6 0
21 7 11 9 37 6 57 -3 20 -8 82 -11 137 -4 55 -11 104 -16 109 -5 6 -10 30 -11
55 -1 43 -2 43 -5 10 -3 -26 -10 -38 -24 -42 -11 -3 -19 -14 -19 -26 0 -12 -7
-24 -15 -27 -10 -4 -15 -20 -15 -49 0 -24 -5 -47 -12 -51 -7 -5 -4 -10 10 -15
26 -10 30 -50 7 -73 -17 -17 -16 -76 2 -98 6 -7 14 -30 18 -50 6 -31 4 -38 -9
-38 -12 0 -16 10 -16 35 0 20 -8 50 -17 68 -9 18 -17 37 -18 42 0 6 -7 22 -14
37 -12 24 -12 31 3 52 15 24 15 28 -1 63 -28 57 -43 54 -44 -9 -1 -29 -2 -62
-3 -73 0 -11 4 -33 10 -50 6 -17 10 -69 8 -117 -2 -70 1 -90 13 -96 8 -5 14
-20 14 -33 -1 -13 -1 -35 -2 -49 0 -14 2 -44 6 -67 8 -42 7 -43 -21 -44 l-29
0 25 -11 25 -11 -25 -7 c-24 -8 -21 -12 10 -14 9 -1 19 -22 27 -61 14 -67 11
-87 -12 -79 -10 4 -15 0 -15 -14 0 -17 -6 -21 -27 -19 -23 2 -29 -3 -34 -28
l-6 -30 -4 30 c-2 17 -8 29 -14 28 -13 -3 -35 -112 -24 -119 5 -3 9 -10 9 -15
0 -6 -4 -7 -10 -4 -16 10 -12 -4 12 -35 27 -36 32 -37 46 -5 13 28 62 36 62
11 0 -8 10 -16 22 -18 21 -3 23 -8 23 -80 0 -42 3 -80 8 -84 4 -4 7 -31 7 -61
0 -59 -9 -65 -50 -34 -21 17 -23 22 -12 45 8 18 9 34 2 52 -6 14 -11 37 -11
52 l-1 27 -8 -30 c-7 -28 -8 -27 -10 15 -1 25 -6 59 -11 75 -6 22 -7 12 -6
-37 2 -38 1 -68 -1 -68 -3 0 -10 7 -16 15 -16 21 -48 -9 -65 -62 -8 -24 -18
-43 -23 -43 -4 0 -8 -7 -8 -15 0 -11 7 -14 28 -10 15 3 21 2 15 -1 -20 -9 -15
-24 12 -34 22 -8 25 -16 25 -54 0 -34 -5 -48 -21 -59 -20 -15 -20 -19 -11
-134 5 -65 12 -133 15 -151 5 -28 4 -31 -8 -18 -8 8 -15 22 -15 31 0 9 -9 19
-20 22 -11 3 -20 9 -20 14 0 5 -4 9 -10 9 -19 0 -10 -17 15 -28 37 -17 30 -29
-16 -29 -22 0 -45 -5 -52 -12 -18 -18 -24 -13 -31 24 -8 39 -26 57 -26 26 0
-12 -7 -21 -15 -21 -8 0 -15 -7 -15 -16 0 -10 5 -14 15 -10 13 5 15 0 9 -32
-4 -20 -9 -40 -11 -45 -7 -13 -33 -8 -27 6 3 10 -5 12 -31 9 -28 -3 -35 -1
-35 13 0 13 6 16 23 12 20 -5 20 -4 -5 16 -16 13 -28 27 -28 33 0 6 -21 10
-47 10 l-48 -1 -2 55 -2 55 14 -39 c21 -56 25 -56 21 0 -3 38 -8 48 -20 46
-21 -4 -20 18 1 33 20 15 18 93 -6 215 -1 3 -5 -2 -11 -10 -7 -11 -11 -9 -19
13 -14 37 -14 46 4 63 8 9 15 28 15 43 0 15 5 32 12 39 8 8 8 15 -2 27 -7 8
-9 15 -5 15 4 0 3 6 -3 13 -6 7 -9 42 -7 79 2 49 -1 71 -11 79 -12 9 -14 5
-14 -25 0 -20 -5 -36 -11 -36 -6 0 -8 8 -4 18 3 11 -3 30 -16 45 -12 16 -15
27 -9 27 8 0 9 7 5 17 -4 10 -6 55 -5 100 1 71 -2 85 -19 102 -25 25 -27 41
-6 41 8 0 15 6 15 13 0 17 -15 39 -26 37 -5 -1 -11 9 -14 21 -5 20 -7 21 -22
6 -13 -13 -14 -24 -7 -54 13 -57 11 -71 -10 -78 -14 -4 -21 -17 -24 -43 -4
-37 -4 -37 -5 6 -2 38 -4 43 -22 37 -14 -4 -20 -2 -20 9 0 9 -11 18 -24 22
-19 5 -25 13 -28 46 -3 30 0 42 14 49 10 5 18 17 18 27 0 14 -2 15 -10 2 -7
-11 -11 -9 -19 13 -19 49 -15 59 22 52 26 -5 37 -2 56 19 27 29 41 33 41 12 0
-15 55 -48 64 -38 3 3 6 15 6 27 0 13 7 28 15 35 12 10 16 8 24 -11 7 -18 10
-19 10 -6 1 22 17 22 30 0 10 -17 10 -17 11 -1 0 10 14 24 33 33 20 9 25 14
12 13 -33 -3 -61 11 -75 37 -7 13 -17 22 -22 19 -4 -3 -6 -9 -4 -13 3 -4 -4
-13 -15 -20 -18 -10 -21 -9 -26 8 -3 10 -13 21 -24 24 -13 4 -19 14 -19 35 0
22 11 40 45 71 24 22 51 41 60 41 8 0 15 7 15 16 0 8 5 12 11 9 6 -4 8 -21 4
-38 l-6 -32 21 38 c22 39 38 45 70 25 15 -10 22 -10 32 0 9 9 10 30 0 94 -7
50 -8 84 -2 88 9 6 8 23 -5 53 -4 10 -5 48 -2 83 5 49 3 63 -6 58 -8 -5 -8 -3
1 7 7 8 20 14 30 14 10 0 18 9 20 22 4 27 22 31 23 6 3 -47 15 40 14 99 -1 55
2 68 16 71 9 3 23 1 30 -4 9 -5 16 -3 19 6 9 24 29 1 32 -35 1 -19 10 -46 20
-59 l18 -24 1 34 c1 19 0 39 -1 44 -11 54 -1 107 14 69 5 -13 12 -11 38 15 17
17 38 31 46 31 10 0 12 7 8 24 -4 15 -1 26 7 29 9 3 9 7 -1 20 -16 18 -12 69
5 74 6 2 14 -5 18 -16 7 -24 25 -28 25 -7 0 8 7 16 15 20 19 7 19 36 -1 64
-20 30 -10 62 22 63 41 2 44 4 53 17 7 11 11 10 25 -3 19 -19 20 -29 6 -56 -9
-15 -7 -21 6 -26 14 -5 15 -16 9 -75 -6 -63 -5 -69 12 -66 13 2 19 -4 21 -25
2 -15 8 -27 14 -27 6 0 8 12 4 32 -4 18 -11 56 -16 83 -14 73 -17 86 -29 125
-12 40 -14 56 -4 47 3 -4 12 -2 20 4 7 6 13 8 13 4 0 -4 6 -2 14 4 19 16 37
-15 39 -69 1 -29 6 -42 19 -46 10 -3 16 -10 13 -15 -4 -5 -1 -17 4 -26 8 -15
10 -11 11 19 0 20 4 47 8 60 9 25 -9 276 -21 295 -9 14 2 65 13 58 6 -4 12
-71 21 -225 10 -176 31 -603 35 -720 3 -85 7 -166 9 -180 1 -14 3 -36 5 -50 2
-24 2 -24 11 5 5 17 7 62 5 100 -3 39 -2 63 1 55 12 -30 30 -41 43 -25 14 17
6 60 -15 82 -8 8 -15 20 -15 26 0 8 4 7 9 -2 7 -10 9 -7 8 12 -1 14 -5 23 -9
20 -5 -2 -8 11 -9 29 -1 45 -6 98 -20 193 -10 69 -9 128 3 235 2 16 9 25 21
25 10 0 21 6 26 13 5 8 25 14 45 15 22 1 36 6 36 14 0 9 8 7 30 -5 16 -9 30
-25 30 -34 0 -22 20 -34 30 -17 7 10 12 10 23 1 16 -14 22 -8 47 41 7 15 30
38 49 50 56 34 90 76 93 116 2 27 7 36 21 35 11 -1 17 5 17 18 0 15 5 18 23
13 20 -5 20 -5 4 5 -14 9 -17 19 -13 38 4 17 3 22 -2 14 -12 -17 -35 34 -27
59 4 13 1 19 -9 19 -9 0 -16 9 -16 20 0 11 6 20 14 20 7 0 19 7 26 15 7 8 17
15 22 15 6 0 5 -7 -2 -16 -11 -12 -10 -18 3 -32 10 -9 17 -11 17 -5 0 6 10 15
22 19 22 7 22 7 -6 29 -16 13 -25 28 -22 34 4 7 -1 11 -13 11 -12 0 -21 6 -21
13 0 6 -14 18 -31 26 -17 7 -46 34 -64 60 -19 25 -60 64 -92 87 -68 48 -83 84
-35 84 33 0 193 -50 241 -75 65 -33 61 -55 61 380 0 338 -2 396 -15 401 -8 3
-43 -1 -77 -10 -47 -11 -75 -13 -112 -6 -26 6 -53 7 -60 3 -6 -4 -20 -6 -30
-4 -14 2 -17 -2 -13 -13 4 -10 1 -16 -8 -16 -8 0 -14 6 -13 13 2 7 -10 12 -32
13 -53 1 -58 3 -62 21 -2 10 -12 18 -22 18 -26 0 -31 19 -10 40 16 16 19 16
29 1 15 -20 35 -2 35 31 0 22 9 27 38 24 16 -2 16 16 0 23 -10 5 -10 7 0 12 6
3 12 12 12 20 0 14 -11 18 -42 15 -10 -1 -18 4 -18 12 0 16 56 21 65 6 11 -16
34 -10 59 17 19 21 30 26 57 22 35 -5 139 19 139 32 0 4 7 11 16 14 8 3 12 2
9 -4 -3 -6 -1 -10 5 -10 19 0 1 58 -28 87 -14 14 -40 32 -58 39 -42 18 -49 30
-24 44 26 14 25 24 -2 39 -13 6 -15 9 -5 7 9 -3 17 -1 17 4 0 15 69 40 111 40
l39 0 0 50 c0 41 -3 50 -17 50 -10 0 -23 4 -30 8 -15 9 -25 60 -13 67 5 3 17
21 26 40 9 19 20 32 25 29 5 -3 9 111 9 268 0 220 -3 287 -16 344 -16 67 -16
75 -1 122 15 45 17 114 17 566 0 421 -2 516 -13 516 -7 0 -56 -9 -107 -20
-143 -31 -178 -17 -168 66 3 27 7 30 53 36 28 3 91 17 140 31 l90 24 3 241 c1
153 -1 242 -7 242 -6 0 -56 -12 -112 -26 -83 -21 -103 -23 -110 -12 -13 20
-11 84 4 95 6 5 55 22 107 37 52 15 101 29 108 32 9 3 12 380 12 1844 l0 1840
-3540 0 -3540 0 0 -3229z m2384 103 c11 -28 6 -39 -9 -20 -8 11 -15 23 -15 28
0 14 18 9 24 -8z m46 -246 c10 -57 20 -121 24 -143 l6 -40 -15 40 c-17 42 -45
190 -45 233 0 50 13 11 30 -90z m2744 -184 c3 -8 2 -12 -4 -9 -6 3 -10 10 -10
16 0 14 7 11 14 -7z m-1073 -104 c18 0 84 -54 89 -72 1 -4 4 -17 7 -28 3 -11
10 -20 16 -20 12 0 57 -48 57 -61 0 -25 85 -138 107 -144 13 -3 35 -19 50 -35
14 -17 32 -30 38 -30 6 0 22 -22 35 -49 25 -54 23 -83 -8 -121 -25 -31 -72
-22 -72 14 0 13 -7 26 -15 29 -8 4 -25 28 -39 54 -29 58 -94 108 -154 118 -33
5 -52 2 -86 -15 -43 -20 -46 -20 -77 -5 -25 13 -29 19 -18 26 26 16 -1 9 -40
-10 -47 -24 -55 -23 -111 15 -50 35 -73 33 -140 -13 -19 -12 -47 -23 -62 -23
-16 0 -28 -4 -28 -10 0 -13 -47 -13 -55 0 -15 25 7 70 48 98 23 15 52 43 64
62 12 19 29 42 38 51 8 9 15 21 15 28 0 6 11 16 25 21 14 5 25 13 25 17 0 16
80 93 97 94 10 1 44 3 75 3 32 1 61 5 65 9 4 4 13 5 21 2 7 -3 22 -5 33 -5z
m1292 -262 c21 -94 31 -171 18 -143 -8 16 -10 16 -10 4 -1 -9 6 -22 14 -29 12
-10 15 -10 15 0 0 30 10 -2 31 -95 18 -85 21 -121 16 -245 -4 -129 -9 -160
-42 -275 -37 -128 -37 -130 -21 -175 22 -62 20 -86 -15 -185 -22 -63 -30 -102
-28 -139 3 -64 -5 -80 -32 -66 -14 8 -19 21 -19 50 0 21 -5 42 -11 46 -8 5
-10 -1 -6 -18 5 -17 1 -33 -12 -49 -10 -13 -21 -35 -25 -49 -9 -29 -18 -50
-77 -175 -23 -49 -49 -101 -59 -115 -9 -14 -32 -49 -51 -77 -19 -29 -40 -53
-47 -53 -7 0 -16 -10 -21 -22 -5 -13 -19 -31 -30 -40 -19 -16 -21 -29 -23
-165 -1 -82 -2 -168 -2 -193 1 -25 2 -240 3 -477 2 -412 3 -435 23 -490 19
-52 22 -89 28 -363 8 -351 6 -362 -68 -520 -27 -58 -57 -132 -67 -165 -29
-101 -72 -276 -85 -350 -14 -80 -42 -172 -61 -204 -8 -13 -33 -43 -56 -69 -39
-41 -42 -50 -41 -94 0 -38 4 -48 15 -44 17 7 63 -22 63 -40 0 -7 8 -13 18 -14
95 -4 97 -4 100 -30 2 -14 8 -30 12 -35 20 -25 8 -297 -16 -354 -8 -18 -14
-66 -14 -107 0 -79 -14 -162 -35 -209 -7 -16 -23 -54 -36 -82 -12 -29 -31 -60
-41 -70 -10 -9 -18 -23 -18 -32 0 -9 -14 -22 -31 -30 -33 -15 -33 -14 -60 32
-5 9 -16 17 -24 17 -17 0 -19 27 -5 64 8 21 7 26 -6 26 -13 0 -15 10 -10 62 9
104 12 122 23 143 6 11 16 31 21 45 l11 25 1 -30 c1 -28 2 -29 10 -7 6 13 6
32 0 48 -6 14 -10 39 -10 56 0 27 -2 30 -25 24 -24 -6 -25 -4 -25 38 0 36 -5
47 -26 61 -14 9 -23 19 -20 22 10 10 -15 33 -36 33 -15 0 -18 3 -11 12 13 17
24 98 13 98 -10 0 -20 -26 -20 -50 0 -24 -17 -35 -34 -21 -7 6 -16 8 -20 3 -4
-4 -12 1 -17 11 -6 9 -16 17 -24 17 -7 0 -17 9 -20 21 -6 19 -8 19 -24 4 -10
-8 -25 -13 -35 -9 -20 8 -20 18 -2 37 8 8 21 30 29 49 13 32 13 36 -4 46 -32
20 -60 13 -100 -23 -26 -24 -49 -35 -69 -35 -18 0 -30 -5 -30 -13 0 -7 -9 -31
-20 -52 -14 -27 -19 -50 -15 -72 4 -20 1 -36 -8 -44 -7 -7 -12 -22 -10 -33 2
-12 -4 -30 -12 -40 -15 -20 -15 -20 -30 0 -8 10 -12 26 -9 34 14 34 33 127 34
157 0 40 -23 49 -79 29 -44 -15 -55 -9 -56 29 -3 65 -18 106 -45 121 -35 22
-84 95 -69 105 7 4 8 12 5 18 -4 6 -12 9 -17 5 -6 -3 -13 4 -16 16 -5 18 -11
21 -37 17 -17 -3 -38 -7 -46 -10 -8 -3 -25 -8 -37 -12 -21 -7 -23 -13 -23 -79
0 -40 7 -96 16 -125 12 -42 13 -59 4 -81 -12 -29 -4 -80 12 -80 6 0 7 -7 4
-17 -4 -9 -2 -31 5 -50 13 -42 5 -71 -15 -54 -10 9 -15 9 -18 1 -6 -19 -56 10
-61 34 l-4 21 -8 -22 c-8 -25 -35 -39 -35 -18 0 7 5 17 10 20 6 3 10 17 10 30
0 31 -20 43 -21 13 l-2 -23 -4 23 c-4 22 -6 22 -17 6 -11 -15 -14 -12 -23 25
-13 49 -6 84 14 77 7 -3 17 2 20 11 7 18 -22 44 -42 37 -7 -3 -15 5 -18 19 -4
13 -18 29 -32 37 -14 7 -25 18 -25 24 0 14 -54 71 -85 92 -13 9 -27 24 -30 35
-4 10 -18 22 -33 25 -38 9 -50 21 -57 57 -4 18 -13 39 -20 47 -21 26 -55 124
-57 163 -1 22 -6 36 -12 34 -6 -3 -19 2 -28 10 -13 12 -15 21 -7 39 7 19 5 26
-6 30 -22 9 -19 61 5 86 11 12 33 22 49 22 24 1 31 -4 34 -24 3 -14 1 -32 -4
-41 -6 -12 -4 -21 7 -29 12 -11 17 -10 28 5 15 21 32 5 22 -21 -3 -9 -1 -12 4
-9 6 3 10 23 10 43 0 25 3 33 9 23 7 -11 11 -9 21 9 11 20 10 21 -9 15 -28 -8
-26 0 4 33 14 15 25 35 25 44 0 13 -8 18 -25 18 -14 0 -25 5 -25 11 0 8 -5 7
-15 -1 -21 -18 -29 -6 -13 20 11 18 11 22 -4 31 -9 5 -23 16 -31 24 -11 10
-17 11 -26 2 -8 -8 -11 -7 -11 6 0 9 5 17 10 17 6 0 10 9 10 20 0 11 7 20 16
20 9 0 12 -5 8 -12 -5 -8 3 -9 29 -5 27 4 39 1 53 -14 9 -10 14 -19 10 -19 -4
0 -4 -5 0 -11 4 -7 12 1 20 21 12 27 16 30 28 18 7 -8 17 -24 21 -37 4 -14 12
-20 21 -17 8 3 14 1 14 -4 0 -6 -4 -10 -10 -10 -5 0 -10 -7 -10 -16 0 -12 6
-15 24 -10 14 3 26 1 28 -5 3 -10 22 6 58 51 12 15 18 18 14 8 -5 -14 -1 -18
20 -18 18 0 29 -7 35 -22 10 -25 45 -58 61 -58 6 0 10 -7 10 -15 0 -20 27 -19
39 2 7 14 12 15 24 5 11 -10 16 -10 19 -1 2 7 12 9 26 5 17 -6 21 -13 17 -27
-5 -14 -2 -19 14 -19 11 0 23 -5 26 -10 4 -6 11 -8 16 -5 5 3 6 -1 3 -9 -6
-15 32 -43 44 -32 3 3 13 -1 23 -10 17 -15 20 -14 42 10 26 27 72 35 80 14 4
-10 8 -9 16 2 8 11 15 12 28 5 25 -14 76 -7 69 10 -2 7 4 15 15 18 11 3 25 19
32 36 7 19 18 31 30 31 10 0 27 8 38 19 12 11 29 17 40 14 10 -3 27 -2 36 1
15 6 15 8 3 16 -9 6 -10 10 -3 10 6 0 9 9 6 20 -3 12 1 22 11 26 19 7 22 74 4
92 -10 10 -10 14 0 21 21 13 5 81 -19 81 -10 0 -21 5 -24 10 -4 7 -12 7 -25 0
-30 -16 -44 -12 -80 25 -19 19 -40 35 -47 35 -7 0 -15 16 -19 36 -4 19 -13 38
-21 41 -10 4 -11 9 -2 19 6 8 8 22 4 31 -6 17 -7 17 -20 0 -13 -18 -14 -17
-20 2 -3 12 -4 25 -1 30 3 5 -1 22 -9 37 -8 16 -15 35 -15 42 0 6 -6 12 -14
12 -19 0 -32 20 -19 29 14 9 23 50 12 57 -5 3 -9 -4 -9 -15 0 -12 -7 -21 -15
-21 -8 0 -15 6 -15 13 0 18 -50 35 -95 31 -64 -5 -105 -16 -99 -25 3 -5 9 -7
14 -4 5 3 12 0 16 -6 9 -14 -115 -3 -130 12 -6 5 -20 9 -31 9 -12 0 -30 9 -40
20 -9 10 -20 19 -24 18 -16 -3 -61 15 -62 26 0 6 -4 32 -8 59 -4 26 -4 47 0
47 4 0 17 21 29 46 20 47 20 47 38 26 17 -19 19 -19 29 -4 11 15 12 15 12 -3
1 -14 4 -16 12 -8 6 6 17 10 23 9 6 -2 8 -1 4 1 -14 8 -9 23 7 23 8 0 15 5 15
10 0 23 18 8 26 -22 8 -26 16 -34 39 -38 28 -5 30 -9 27 -43 -2 -26 1 -37 11
-37 20 0 80 -57 73 -69 -4 -5 -2 -12 3 -15 14 -9 41 4 41 19 0 7 14 16 30 20
17 4 30 13 30 21 0 8 7 14 15 14 8 0 15 5 15 10 0 6 7 10 15 10 18 0 20 16 3
24 -7 3 -3 3 10 0 19 -5 22 -1 22 25 0 17 8 38 19 48 27 26 36 76 16 93 -17
14 -21 70 -5 70 15 0 12 47 -3 53 -9 3 -12 26 -11 77 1 60 4 75 20 86 37 26
44 35 44 59 0 16 6 25 15 25 8 0 15 5 15 10 0 6 11 15 25 22 14 6 29 25 36 45
7 23 16 33 25 29 8 -3 28 8 44 24 17 17 37 30 45 30 8 0 15 9 15 20 0 22 15
27 26 9 4 -8 9 -7 14 2 7 10 13 9 33 -4 l25 -16 5 42 c3 23 13 46 21 53 9 6
16 16 16 23 0 15 17 14 22 -1 7 -19 28 1 28 26 0 13 7 29 15 36 21 17 45 69
45 97 0 12 6 23 13 23 7 0 23 9 35 20 12 11 25 20 30 20 5 0 14 11 20 25 7 14
20 25 31 25 13 0 21 9 26 30 4 17 11 30 16 30 5 0 11 11 15 24 3 13 14 26 25
29 15 4 19 14 19 50 0 25 4 48 9 51 5 3 9 29 9 57 1 43 7 58 40 102 22 29 58
70 80 93 22 23 37 46 33 52 -5 8 -12 5 -23 -7 -9 -11 -14 -22 -11 -25 3 -3 -6
-10 -20 -15 -14 -5 -28 -19 -32 -30 -3 -12 -15 -22 -26 -22 -40 -3 -44 -5 -43
-22 1 -9 -4 -17 -12 -17 -8 0 -14 -4 -14 -10 0 -6 -9 -6 -26 1 -21 7 -31 6
-45 -7 -11 -10 -25 -14 -36 -10 -11 5 -23 0 -33 -15 -15 -19 -19 -20 -39 -8
-20 12 -24 12 -37 -5 -11 -16 -17 -17 -26 -8 -18 18 -56 15 -67 -5 -9 -17 -11
-16 -33 4 -24 22 -80 31 -110 18 -10 -4 -25 -4 -34 -1 -9 3 -25 -1 -37 -9 -32
-22 -42 -19 -56 20 -11 32 -31 48 -31 25 0 -5 -7 -10 -15 -10 -18 0 -37 34
-26 46 10 10 -15 74 -28 74 -5 0 -11 -9 -14 -20 -3 -11 -10 -20 -16 -20 -23 0
19 56 44 60 6 1 9 8 7 16 -5 24 26 64 48 64 11 0 20 -7 20 -16 0 -8 5 -12 10
-9 6 4 8 11 5 16 -4 5 -3 9 2 9 4 0 30 21 57 45 43 40 50 51 54 95 3 33 9 50
18 50 28 0 15 41 -16 51 -17 6 -30 18 -30 27 0 11 -3 13 -8 6 -4 -6 -18 -8
-31 -4 l-25 6 35 28 c20 16 26 25 14 21 -11 -4 -26 -7 -32 -6 -7 1 -23 3 -36
4 -15 1 -23 9 -23 23 -1 17 3 21 20 17 20 -5 20 -5 -2 12 -22 16 -23 16 -41
-6 -11 -14 -23 -19 -30 -14 -11 6 -10 9 0 16 12 8 12 11 0 18 -12 8 -11 13 10
30 27 23 39 26 39 11 0 -6 8 -5 20 2 26 16 25 23 -2 35 -18 8 -27 4 -51 -20
-27 -27 -31 -29 -42 -14 -14 19 -55 12 -55 -9 0 -13 -12 -18 -32 -15 -13 2 -9
-17 5 -22 6 -2 8 -8 4 -13 -5 -5 -15 -1 -22 10 -13 17 -15 17 -40 -8 -14 -14
-28 -26 -30 -26 -12 0 -3 24 13 37 9 8 12 12 5 9 -6 -4 -13 -1 -15 5 -6 17
-48 1 -48 -17 0 -8 -4 -13 -10 -9 -5 3 -6 13 -3 23 3 9 -8 1 -26 -18 -27 -29
-29 -36 -17 -45 8 -5 24 -17 35 -25 12 -8 21 -18 21 -22 0 -14 -28 -9 -33 6
-5 12 -14 12 -47 4 -29 -8 -47 -8 -63 0 -48 25 -76 31 -81 19 -3 -9 -8 -8 -18
3 -7 8 -22 16 -33 18 -11 2 -30 10 -42 18 -13 8 -23 10 -23 4 0 -5 -4 -10 -10
-10 -5 0 -7 6 -4 13 3 8 -2 20 -11 27 -13 11 -19 11 -32 -3 -15 -15 -19 -15
-47 1 -17 9 -39 25 -50 35 -11 9 -26 17 -33 17 -16 0 -74 54 -77 72 -1 7 -5
19 -10 26 -13 21 2 59 25 65 11 3 23 15 26 27 4 15 11 19 24 15 24 -8 24 3 2
22 -17 14 -17 14 0 9 11 -4 17 0 17 10 0 9 -9 18 -19 21 -22 6 -34 69 -16 87
7 6 17 22 24 35 7 12 28 29 48 37 19 9 47 26 61 39 14 13 41 26 61 30 19 4 53
20 76 35 37 27 43 28 82 18 40 -11 44 -11 72 16 40 39 97 45 152 17 38 -20 43
-21 65 -6 13 8 48 16 78 18 45 2 59 -2 80 -22 23 -21 31 -23 83 -17 52 6 62 4
93 -19 18 -14 42 -25 53 -25 25 0 55 -17 100 -56 20 -19 41 -34 47 -34 5 0 23
-20 40 -44 41 -61 41 -110 0 -134 -36 -20 -38 -32 -7 -32 37 0 94 -24 89 -38
-3 -11 4 -14 24 -11 4 0 10 -5 15 -12 6 -10 15 -9 43 6 19 11 38 16 41 13 4
-4 7 -34 8 -69 3 -82 19 -94 82 -60 25 13 45 28 45 32 0 5 8 17 18 27 10 10
25 41 32 68 8 27 20 55 28 63 17 17 8 94 -14 128 -8 12 -14 33 -14 47 0 36
-36 114 -68 145 -15 15 -31 34 -37 43 -16 27 -63 12 -67 -21 -4 -34 -32 -35
-36 -1 -2 14 -8 30 -14 35 -6 7 -7 -12 -3 -56 8 -78 -1 -133 -20 -125 -7 2
-40 25 -73 50 -33 25 -63 46 -67 46 -3 0 -37 20 -75 45 -38 25 -73 45 -78 45
-6 0 -30 11 -53 25 -24 14 -54 25 -66 25 -35 0 -72 21 -66 37 3 8 13 11 24 8
23 -8 24 1 4 21 -8 9 -20 12 -25 9 -6 -4 -18 -4 -27 0 -15 5 -13 9 8 29 22 20
34 23 90 21 45 -1 74 -8 99 -23 19 -12 44 -22 55 -22 11 0 31 -7 43 -16 12 -8
22 -12 22 -8 0 3 7 1 15 -6 28 -23 29 17 1 47 -15 15 -28 35 -31 43 -3 8 -15
20 -27 25 -13 6 -22 15 -20 20 2 6 -7 12 -20 15 -16 4 -26 17 -34 45 -13 46
-78 100 -134 111 -19 4 -49 15 -67 25 -19 11 -35 14 -38 9 -4 -6 -12 -10 -19
-10 -10 0 -12 13 -8 48 3 36 0 51 -12 61 -9 7 -16 20 -16 28 0 10 14 5 44 -17
25 -16 53 -30 63 -30 11 0 24 -5 30 -11 7 -7 22 -12 35 -13 16 -1 27 -11 37
-33 13 -30 19 -33 73 -39 32 -4 60 -10 63 -14 2 -4 16 -5 30 -2 15 2 25 0 25
-7 0 -7 5 -9 10 -6 6 4 24 -5 41 -19 32 -27 54 -33 64 -17 3 6 19 4 40 -5 19
-8 46 -14 60 -14 14 0 25 -5 25 -11 0 -6 12 -10 28 -9 47 3 63 0 57 -10 -3 -5
1 -10 11 -10 12 0 14 3 6 13 -5 6 -13 23 -17 37 l-7 25 19 -22 c11 -13 23 -20
26 -17 12 12 -35 52 -56 48 l-22 -5 21 10 c30 13 38 29 24 46 -9 11 -9 15 -1
15 6 0 11 -4 11 -10 0 -5 7 -10 15 -10 12 0 14 8 9 40 -5 33 -4 40 10 40 9 0
16 4 16 8 0 5 6 15 13 23 6 8 11 13 10 10 -4 -7 28 -33 34 -28 3 4 6 18 6 32
0 19 5 25 21 26 11 0 15 3 9 6 -20 7 -15 23 6 23 11 0 22 -8 25 -18 9 -28 58
-26 90 3 15 14 31 25 37 25 5 0 9 7 9 15 0 12 5 13 27 4 44 -17 79 -2 110 46
15 24 37 46 48 49 17 5 18 7 5 16 -10 6 -11 10 -2 10 7 0 4 8 -8 20 -33 33 -2
67 70 79 3 1 13 -32 23 -71z m-1933 -108 c0 -5 -4 -10 -10 -10 -5 0 -12 -11
-16 -25 -10 -39 -34 -31 -34 10 0 32 2 35 30 35 17 0 30 -4 30 -10z m-559 -61
c19 -22 34 -46 34 -52 0 -7 7 -17 16 -24 8 -6 22 -37 29 -68 8 -32 20 -59 27
-62 7 -3 13 -11 13 -19 0 -8 9 -14 20 -14 11 0 20 -6 20 -13 0 -16 67 -11 89
6 10 9 16 7 26 -6 18 -25 25 -21 25 15 0 29 1 30 18 15 24 -22 35 -21 27 2 -3
12 0 21 10 25 11 4 14 13 10 26 -3 11 -2 28 4 37 8 14 10 15 11 3 0 -15 30 35
30 51 0 5 11 26 24 47 12 20 24 40 25 45 2 13 15 2 18 -15 2 -10 -2 -18 -8
-18 -6 0 -9 -7 -6 -15 4 -8 2 -17 -2 -20 -13 -7 -1 -47 13 -42 6 3 10 10 8 17
-2 7 3 10 12 7 11 -4 13 -1 9 10 -4 9 1 21 12 29 27 20 32 18 39 -17 8 -41 43
-89 65 -89 9 0 36 -9 59 -20 39 -19 42 -23 40 -57 -2 -25 -8 -37 -20 -41 -10
-2 -18 -12 -18 -21 0 -9 -8 -23 -18 -31 -93 -78 -119 -96 -129 -93 -7 3 -13
-1 -13 -8 0 -16 -30 -38 -53 -39 -9 0 -35 -12 -57 -26 -22 -15 -46 -24 -54
-21 -9 4 -19 0 -24 -9 -4 -8 -17 -16 -28 -18 -47 -9 -95 -37 -106 -60 -6 -15
-15 -26 -20 -26 -4 0 -8 -7 -8 -15 0 -8 -5 -15 -10 -15 -6 0 -15 -11 -20 -25
-5 -14 -16 -25 -25 -25 -8 0 -15 -6 -16 -12 0 -7 -2 -24 -3 -38 -1 -14 -3 -41
-4 -60 -1 -19 -12 -50 -23 -69 -18 -30 -22 -33 -31 -18 -5 10 -10 40 -10 67
-1 28 -3 50 -5 50 -2 0 -8 -12 -13 -26 -6 -14 -14 -22 -20 -19 -16 10 -12 45
10 75 17 24 18 29 5 40 -17 14 -8 43 12 36 7 -3 16 1 20 10 8 20 -6 32 -17 14
-7 -12 -13 -10 -29 9 -25 29 -25 30 -3 48 12 10 14 16 5 19 -7 3 -13 15 -13
25 0 11 -4 17 -10 14 -6 -3 -10 5 -10 18 0 14 -7 28 -16 31 -12 5 -15 14 -11
35 5 21 1 33 -15 47 -21 19 -21 19 -14 -8 4 -17 2 -28 -4 -28 -5 0 -10 5 -10
10 0 6 -9 10 -21 10 -16 0 -19 4 -14 20 9 29 -23 39 -42 14 -13 -17 -15 -18
-24 -2 -6 10 -17 14 -30 11 -16 -5 -20 -2 -17 13 2 11 -2 18 -10 16 -7 -1 -22
7 -34 17 -16 16 -20 28 -15 56 3 21 2 35 -4 35 -25 0 -38 29 -34 71 8 74 7 78
-22 103 -15 13 -25 27 -22 30 9 9 59 -19 75 -43 9 -12 26 -21 39 -21 30 0 106
32 137 58 12 11 37 32 53 46 41 35 56 33 96 -15z m1859 -259 c0 -5 -4 -10 -10
-10 -5 0 -10 5 -10 10 0 6 5 10 10 10 6 0 10 -4 10 -10z m-949 -172 c3 -5 12
-6 21 -3 21 8 68 -12 68 -30 0 -18 -16 -20 -24 -2 -3 8 -9 6 -20 -7 -9 -11
-16 -15 -16 -8 0 6 -7 9 -15 6 -23 -9 -18 -31 8 -37 12 -4 30 -12 41 -20 17
-13 16 -14 -15 -14 -42 -1 -94 -10 -134 -23 -16 -5 -52 -12 -80 -15 -27 -3
-58 -8 -67 -11 -9 -3 -45 -6 -80 -9 -35 -2 -76 -8 -91 -14 -35 -13 -40 -14
-32 -2 3 5 1 12 -5 16 -15 9 -12 25 5 25 8 0 15 7 15 15 0 8 9 19 20 25 11 6
20 17 20 24 0 9 16 17 40 21 22 4 42 11 46 16 3 5 13 9 24 9 10 0 20 7 24 15
3 10 19 15 45 15 21 0 54 6 72 14 35 15 119 11 130 -6z m162 -25 c4 -2 7 -13
7 -24 0 -17 -3 -18 -20 -9 -11 6 -26 8 -33 4 -8 -5 -7 -2 2 9 12 15 11 17 -3
17 -9 0 -16 5 -16 10 0 9 42 5 63 -7z m127 -28 c0 -8 -2 -15 -4 -15 -2 0 -6 7
-10 15 -3 8 -1 15 4 15 6 0 10 -7 10 -15z m-73 -21 c-9 -9 -28 6 -21 18 4 6
10 6 17 -1 6 -6 8 -13 4 -17z m-1599 -380 c3 -24 -34 -62 -47 -48 -12 12 17
76 32 71 7 -2 13 -12 15 -23z m232 -122 c0 -5 -7 -17 -16 -28 -8 -10 -13 -13
-9 -6 3 6 0 12 -7 13 -10 0 -10 2 0 6 6 2 10 9 6 14 -3 5 2 9 10 9 9 0 16 -4
16 -8z m55 -53 c-4 -41 -11 -57 -20 -47 -8 8 7 98 16 92 5 -2 6 -23 4 -45z
m485 10 c0 -18 -20 -18 -29 0 -9 16 -8 18 9 14 11 -3 20 -9 20 -14z m35 -9 c3
-5 1 -10 -4 -10 -6 0 -11 5 -11 10 0 6 2 10 4 10 3 0 8 -4 11 -10z m-49 -67
c-10 -10 -19 5 -10 18 6 11 8 11 12 0 2 -7 1 -15 -2 -18z m44 11 c0 -8 -5 -12
-10 -9 -6 4 -8 11 -5 16 9 14 15 11 15 -7z m-230 -8 c0 -3 -4 -8 -10 -11 -5
-3 -10 -1 -10 4 0 6 5 11 10 11 6 0 10 -2 10 -4z m40 -6 c0 -5 -5 -10 -11 -10
-5 0 -7 5 -4 10 3 6 8 10 11 10 2 0 4 -4 4 -10z m-320 -25 c0 -8 -4 -15 -10
-15 -5 0 -10 7 -10 15 0 8 5 15 10 15 6 0 10 -7 10 -15z m424 -1 c5 -12 10
-14 20 -5 16 13 27 4 19 -16 -4 -10 -2 -14 7 -11 23 7 83 -18 86 -37 2 -10 9
-22 16 -26 9 -6 9 -9 1 -9 -7 0 -2 -11 11 -25 13 -14 31 -25 40 -25 9 0 16 -6
15 -12 -4 -36 4 -55 31 -72 17 -9 28 -21 25 -26 -3 -5 -1 -11 5 -15 13 -8 12
-16 -4 -38 -11 -14 -19 -15 -39 -8 -32 12 -45 -2 -25 -26 11 -14 10 -15 -9 -9
-15 5 -27 1 -42 -15 -17 -18 -21 -19 -21 -7 0 9 6 19 13 21 17 8 -12 27 -30
20 -8 -3 -13 3 -13 17 0 18 -5 20 -29 17 -31 -5 -66 11 -44 20 10 3 10 8 -1
19 -8 8 -18 14 -23 14 -4 0 -14 9 -21 20 -7 11 -18 20 -25 20 -7 0 -18 9 -25
20 -7 11 -20 20 -29 20 -13 0 -14 3 -6 11 9 9 8 15 -3 26 -8 8 -14 23 -14 34
0 12 -7 19 -19 19 -31 0 -14 36 22 48 30 9 30 10 7 11 -20 1 -22 3 -10 11 20
13 60 13 60 0 0 -18 18 -10 23 10 6 24 23 26 31 4z m106 -15 c0 -5 -4 -9 -10
-9 -5 0 -10 7 -10 16 0 8 5 12 10 9 6 -3 10 -10 10 -16z m-285 -9 c3 -5 1 -10
-4 -10 -6 0 -11 5 -11 10 0 6 2 10 4 10 3 0 8 -4 11 -10z m1113 -98 c2 -7 -2
-10 -12 -6 -11 4 -16 1 -16 -10 0 -9 7 -16 15 -16 8 0 15 -7 15 -15 0 -17 -16
-20 -25 -5 -3 5 -11 7 -18 4 -15 -5 -17 48 -2 58 14 11 38 5 43 -10z m49 -78
c-3 -3 -12 -4 -19 -1 -8 3 -5 6 6 6 11 1 17 -2 13 -5z m-149 -25 c-2 -6 -8
-10 -13 -10 -5 0 -11 4 -13 10 -2 6 4 11 13 11 9 0 15 -5 13 -11z m172 1 c0
-5 -4 -10 -10 -10 -5 0 -10 5 -10 10 0 6 5 10 10 10 6 0 10 -4 10 -10z m-36
-15 c3 -8 2 -15 -3 -15 -5 0 -14 7 -21 15 -10 12 -10 15 3 15 8 0 17 -7 21
-15z m46 -15 c0 -5 -4 -10 -10 -10 -5 0 -10 5 -10 10 0 6 5 10 10 10 6 0 10
-4 10 -10z m-847 -157 c-7 -2 -13 -12 -13 -20 0 -13 3 -13 15 -3 12 10 22 9
52 -5 21 -10 44 -27 52 -38 14 -19 14 -19 27 4 10 19 13 20 14 7 0 -22 20 -24
20 -3 0 15 14 19 62 16 15 0 30 4 33 10 5 7 14 5 29 -4 12 -8 50 -18 84 -22
34 -4 62 -11 62 -17 0 -5 17 -8 37 -6 l38 3 1 -51 c2 -59 -14 -100 -38 -96
-11 2 -18 -6 -20 -20 -2 -18 -10 -24 -35 -26 -22 -2 -33 -9 -33 -19 0 -13 -7
-14 -42 -8 -24 4 -52 7 -62 7 -11 -1 -32 8 -48 19 l-28 20 7 -47 c4 -34 3 -45
-5 -40 -7 4 -12 19 -12 34 -1 29 -43 84 -72 95 -13 5 -18 1 -18 -13 0 -48 -44
-29 -84 37 -14 24 -30 42 -35 38 -10 -5 -25 35 -35 92 -4 26 -1 35 17 48 12 8
26 15 32 14 5 0 4 -3 -2 -6z m67 -8 c0 -8 -4 -15 -10 -15 -5 0 -10 7 -10 15 0
8 5 15 10 15 6 0 10 -7 10 -15z m45 -5 c3 -5 -1 -10 -10 -10 -9 0 -13 5 -10
10 3 6 8 10 10 10 2 0 7 -4 10 -10z m443 -88 c9 -6 8 -17 -7 -47 l-19 -39 2
47 c1 49 3 52 24 39z m121 -19 c9 -17 10 -17 16 0 8 20 35 23 35 4 0 -7 -9
-18 -20 -25 -17 -10 -24 -10 -38 0 -19 15 -27 38 -12 38 5 0 13 -8 19 -17z
m-89 -17 c0 -8 -4 -18 -10 -21 -5 -3 -10 3 -10 14 0 12 5 21 10 21 6 0 10 -6
10 -14z m180 -1 c0 -8 -4 -15 -10 -15 -5 0 -10 7 -10 15 0 8 5 15 10 15 6 0
10 -7 10 -15z m-136 -20 c-6 -16 -24 -21 -24 -7 0 11 11 22 21 22 5 0 6 -7 3
-15z m-59 -25 c3 -5 1 -10 -4 -10 -6 0 -11 5 -11 10 0 6 2 10 4 10 3 0 8 -4
11 -10z m-21 -63 c-7 -18 -24 -23 -24 -8 0 22 13 42 22 33 5 -5 6 -16 2 -25z
m186 -27 c0 -5 -2 -10 -4 -10 -3 0 -8 5 -11 10 -3 6 -1 10 4 10 6 0 11 -4 11
-10z m30 -10 c0 -5 -5 -10 -11 -10 -5 0 -7 5 -4 10 3 6 8 10 11 10 2 0 4 -4 4
-10z m-1154 -338 c16 9 39 -26 39 -58 0 -17 -6 -38 -14 -47 -9 -11 -10 -17 -2
-17 6 0 11 5 11 10 0 12 41 -7 52 -24 5 -7 16 -6 36 6 28 17 29 17 61 -17 18
-19 31 -40 30 -47 -4 -33 1 -42 14 -24 23 31 42 -6 42 -81 0 -51 -3 -64 -17
-69 -10 -3 -18 -11 -18 -19 0 -7 -10 -15 -22 -18 -22 -3 -22 -4 5 -15 15 -6
26 -15 25 -19 -1 -8 4 -23 23 -70 5 -13 5 -23 0 -23 -5 0 -11 -9 -14 -20 -3
-11 -12 -20 -20 -20 -7 0 -22 9 -32 20 -10 11 -26 20 -36 20 -23 0 -32 30 -20
64 7 18 7 26 0 26 -6 0 -13 -9 -16 -20 l-6 -21 -14 21 c-8 11 -18 20 -23 20
-5 0 -23 14 -41 31 -24 23 -34 28 -44 19 -11 -9 -18 -5 -35 22 -11 18 -20 42
-19 53 2 39 -1 44 -37 47 -44 4 -64 28 -43 50 10 12 19 13 36 5 12 -5 33 -7
47 -3 21 5 25 11 20 29 -3 15 0 28 10 36 9 8 16 17 16 22 0 15 -27 10 -34 -6
-3 -9 -12 -12 -23 -8 -40 14 -43 23 -23 64 11 21 16 39 10 39 -16 0 -12 52 6
72 16 17 18 17 39 -8 13 -15 27 -24 31 -22z m89 -52 c-3 -4 5 -10 16 -13 23
-6 21 -30 -2 -35 -17 -3 -49 47 -42 66 4 10 8 10 19 1 8 -6 12 -15 9 -19z
m-201 -245 c-4 -8 -8 -15 -10 -15 -2 0 -4 7 -4 15 0 8 4 15 10 15 5 0 7 -7 4
-15z m3233 9 c-3 -3 -12 -4 -19 -1 -8 3 -5 6 6 6 11 1 17 -2 13 -5z m-3267
-34 c0 -5 -4 -10 -10 -10 -5 0 -10 5 -10 10 0 6 5 10 10 10 6 0 10 -4 10 -10z
m3882 -5 c0 -5 -5 -11 -11 -13 -6 -2 -11 4 -11 13 0 9 5 15 11 13 6 -2 11 -8
11 -13z m-3842 -21 c0 -9 -5 -12 -11 -8 -7 4 -9 0 -5 -14 6 -16 3 -19 -12 -15
-20 5 -21 -3 -6 -76 l5 -24 15 22 c9 12 19 19 23 17 9 -6 8 40 -1 50 -10 9 1
26 13 19 5 -4 9 -16 9 -28 0 -13 7 -33 16 -45 14 -21 14 -22 -10 -22 -30 0
-37 -17 -20 -49 18 -34 10 -41 -47 -41 -58 0 -64 -19 -11 -32 18 -5 32 -15 32
-23 0 -9 6 -12 15 -9 8 4 15 1 15 -6 0 -9 3 -10 14 -1 10 9 16 8 26 -4 7 -8
21 -15 31 -15 20 0 23 -22 10 -70 -5 -17 -9 -21 -15 -12 -10 17 -27 5 -19 -14
3 -8 12 -13 20 -10 8 3 11 2 8 -3 -3 -5 -1 -12 5 -16 5 -3 10 -18 10 -32 0
-57 53 -74 98 -33 11 11 23 16 26 12 12 -11 0 133 -13 156 -12 22 -14 22 -30
8 -23 -21 -31 -20 -31 4 0 24 27 37 43 21 19 -19 43 -12 81 25 30 29 39 34 52
24 19 -17 0 -40 -32 -40 -17 0 -24 -6 -24 -20 0 -25 4 -25 40 2 44 32 55 15
39 -56 -7 -31 -17 -56 -24 -56 -17 0 -57 -45 -55 -61 5 -33 -2 -51 -30 -81
-22 -22 -30 -26 -30 -14 0 9 -5 16 -11 16 -6 0 -8 -7 -5 -16 3 -9 6 -24 6 -34
0 -13 5 -17 20 -13 21 6 25 0 35 -60 5 -33 3 -38 -18 -46 -14 -6 -27 -16 -30
-23 -4 -10 -7 -10 -15 1 -9 12 -13 12 -26 2 -9 -8 -16 -20 -16 -29 0 -13 3
-12 20 3 21 19 22 18 35 -38 5 -24 8 -27 20 -17 8 7 15 20 15 28 0 13 2 14 13
3 10 -11 10 -14 0 -18 -18 -6 -16 -23 2 -23 8 0 15 -9 15 -20 0 -11 -4 -20
-10 -20 -5 0 -10 -13 -10 -30 0 -24 -4 -30 -21 -30 -17 0 -20 5 -17 25 6 29 1
30 -26 10 -11 -8 -28 -15 -38 -15 -16 0 -25 -29 -19 -64 1 -4 -9 -6 -23 -2
-19 5 -28 1 -36 -14 -8 -15 -21 -20 -55 -20 -49 0 -53 -4 -28 -32 9 -10 13
-21 10 -25 -4 -4 -13 1 -20 11 -12 16 -14 16 -31 -3 -11 -12 -28 -21 -38 -21
-10 0 -21 -7 -24 -15 -12 -29 -32 -16 -31 20 1 21 -5 40 -15 47 -19 15 -40 86
-31 102 3 6 2 8 -2 3 -5 -4 -14 10 -21 30 -8 23 -10 39 -4 41 6 2 9 13 9 25
-1 17 -2 18 -6 5 -5 -21 -33 -24 -33 -5 0 7 -9 30 -19 50 -21 41 -22 148 -2
155 14 5 15 32 1 32 -5 0 -10 5 -10 10 0 6 7 10 15 10 16 0 20 12 8 23 -11 11
-10 57 2 57 6 0 9 25 7 65 -2 39 1 71 8 79 6 8 8 26 4 42 -5 20 -4 25 6 19 19
-12 30 15 23 58 -4 24 -2 37 6 37 6 0 11 9 11 21 0 33 34 19 40 -16 4 -21 8
-26 14 -17 4 7 5 16 2 19 -3 3 9 13 27 22 34 17 47 52 28 75 -18 21 -2 76 21
76 11 0 22 9 25 20 6 22 23 17 23 -6z m2470 16 c0 -13 -11 -13 -30 0 -12 8
-11 10 8 10 12 0 22 -4 22 -10z m-2546 -15 c-4 -8 -8 -15 -10 -15 -2 0 -4 7
-4 15 0 8 4 15 10 15 5 0 7 -7 4 -15z m474 -74 c-15 -5 -21 7 -13 26 7 17 8
17 15 -2 4 -11 3 -22 -2 -24z m-1112 19 c8 0 14 -4 14 -10 0 -5 -7 -10 -16
-10 -9 0 -28 -6 -42 -14 -35 -18 -126 -48 -138 -45 -5 1 -22 -3 -39 -10 -16
-7 -56 -19 -90 -27 -33 -9 -78 -20 -100 -26 -22 -6 -48 -12 -57 -13 -45 -4 3
38 57 51 17 4 35 10 40 14 6 4 35 13 65 20 30 7 75 20 100 30 59 23 161 48
178 44 8 -2 20 -4 28 -4z m4679 -130 c-3 -5 -12 -10 -18 -10 -7 0 -6 4 3 10
19 12 23 12 15 0z m-176 -6 c17 -4 31 -10 31 -14 0 -5 -9 -6 -21 -3 -15 4 -28
-2 -44 -21 -13 -15 -26 -23 -29 -17 -4 5 -2 12 4 16 18 11 11 25 -13 25 -16 0
-23 -6 -23 -17 1 -10 -3 -18 -9 -18 -5 0 -9 8 -8 18 2 10 -4 17 -13 17 -8 0
-12 5 -9 10 7 11 86 13 134 4z m-3719 -25 c0 -6 -4 -7 -10 -4 -5 3 -10 11 -10
16 0 6 5 7 10 4 6 -3 10 -11 10 -16z m-1330 1 c0 -15 -31 -60 -41 -60 -5 0
-31 -14 -58 -30 -70 -44 -258 -105 -249 -81 9 23 110 97 177 129 92 44 171 63
171 42z m4609 1 c9 -6 0 -10 -28 -13 -46 -4 -51 -1 -18 12 28 11 29 11 46 1z
m-3164 -10 c7 -12 -12 -24 -25 -16 -11 7 -4 25 10 25 5 0 11 -4 15 -9z m2470
-6 c26 -10 55 -14 135 -19 74 -4 119 -14 139 -30 12 -9 13 -8 8 7 -3 9 -2 17
3 17 6 0 10 -9 10 -19 0 -17 18 -31 41 -31 5 0 9 12 9 28 1 24 2 25 14 10 7
-10 20 -18 28 -18 9 0 21 -7 28 -15 11 -13 7 -15 -24 -15 -35 0 -53 -19 -18
-21 10 0 12 -3 5 -6 -7 -2 -13 -15 -13 -28 0 -22 -17 -35 -46 -35 -23 0 -16
18 9 22 28 4 29 32 1 36 -14 2 -29 -6 -41 -21 -23 -30 -68 -27 -76 5 -5 18
-11 19 -42 14 -36 -7 -36 -7 -16 13 10 10 27 21 38 24 10 3 -4 3 -30 2 -56 -4
-77 2 -77 21 0 19 -63 28 -90 14 -13 -7 -64 -14 -115 -17 -76 -4 -93 -2 -105
12 -23 28 9 42 120 52 30 2 60 6 65 7 6 2 12 2 15 1 3 -1 14 -5 25 -10z m966
-103 c-21 -7 -11 -22 14 -22 27 0 35 -26 13 -48 -16 -16 -48 -15 -48 2 0 7 -7
19 -15 26 -13 11 -18 10 -29 -5 -7 -10 -18 -15 -25 -11 -9 6 -6 13 9 26 11 9
20 22 20 28 0 6 9 13 19 17 11 3 22 13 26 23 6 14 8 13 17 -8 6 -16 6 -26 -1
-28z m-485 7 c-3 -17 -6 -41 -6 -53 0 -17 -2 -18 -10 -6 -8 13 -11 11 -16 -7
-4 -13 -10 -20 -16 -17 -5 3 -4 12 3 20 6 8 9 23 6 34 -3 13 0 20 9 20 8 0 14
9 14 20 0 11 5 20 11 20 8 0 9 -11 5 -31z m343 -2 c13 -16 5 -27 -21 -27 -18
0 -25 20 -11 33 10 10 19 8 32 -6z m265 -22 c-4 -8 -1 -15 5 -15 6 0 11 -9 11
-21 0 -12 -5 -19 -12 -17 -16 5 -24 68 -9 68 6 0 8 -7 5 -15z m-888 -32 c-10
-10 -19 5 -10 18 6 11 8 11 12 0 2 -7 1 -15 -2 -18z m-36 -13 c0 -5 10 -10 23
-10 22 0 22 0 -3 -13 -21 -11 -27 -10 -42 5 -23 23 -23 28 2 28 11 0 20 -4 20
-10z m933 -50 c4 -17 0 -20 -26 -19 -27 0 -29 2 -12 9 11 5 16 9 10 9 -7 1 12
20 21 21 1 0 4 -9 7 -20z m77 7 c0 -9 -10 -12 -30 -9 -35 5 -30 22 6 22 13 0
24 -6 24 -13z m-924 -42 c-3 -8 -10 -15 -16 -15 -7 0 -8 5 -3 13 4 6 8 15 9
20 4 19 6 21 11 9 3 -7 2 -19 -1 -27z m82 5 c11 -17 10 -20 -7 -20 -21 0 -45
23 -34 33 12 13 28 7 41 -13z m112 -20 c0 -5 -4 -10 -9 -10 -6 0 -13 5 -16 10
-3 6 1 10 9 10 9 0 16 -4 16 -10z m-135 -10 c3 -5 -1 -10 -10 -10 -9 0 -13 5
-10 10 3 6 8 10 10 10 2 0 7 -4 10 -10z m-2345 -179 c0 -11 -49 -21 -55 -10
-3 4 7 10 22 12 16 2 29 5 31 6 1 0 2 -3 2 -8z m22 -53 c-15 -15 -26 -4 -18
18 5 13 9 15 18 6 9 -9 9 -15 0 -24z m1928 -70 c0 -14 -19 1 -31 25 -12 22
-12 22 10 3 11 -11 21 -23 21 -28z m30 -12 c0 -3 -4 -8 -10 -11 -5 -3 -10 -1
-10 4 0 6 5 11 10 11 6 0 10 -2 10 -4z m269 -48 c-1 -18 2 -41 6 -50 4 -11 3
-18 -3 -18 -15 0 -19 8 -27 58 -6 35 -4 42 9 42 12 0 16 -9 15 -32z m-349 -22
c0 -3 -4 -8 -10 -11 -5 -3 -10 -1 -10 4 0 6 5 11 10 11 6 0 10 -2 10 -4z
m-2299 -83 c0 -16 3 -22 6 -15 2 6 12 12 21 12 12 0 13 -3 4 -12 -18 -18 -15
-28 8 -28 23 0 26 -10 8 -28 -9 -9 -5 -12 20 -12 18 0 32 5 32 11 0 5 5 7 11
3 18 -10 -5 -25 -47 -31 -52 -6 -73 -26 -56 -53 15 -25 1 -26 -22 -1 -16 17
-13 56 4 46 4 -3 10 2 14 10 3 9 0 15 -9 15 -16 0 -17 4 -20 68 -1 29 2 42 12
42 7 0 13 -12 14 -27z m2359 -14 c0 -8 4 -8 14 0 9 8 16 8 20 2 4 -6 13 -8 21
-4 8 3 15 0 15 -6 0 -7 -7 -14 -15 -17 -8 -3 -17 -14 -20 -24 -9 -29 -55 -3
-55 33 0 15 5 27 10 27 6 0 10 -5 10 -11z m150 -19 c0 -5 -4 -10 -10 -10 -5 0
-10 5 -10 10 0 6 5 10 10 10 6 0 10 -4 10 -10z m-2610 -20 c0 -5 -5 -10 -11
-10 -5 0 -7 5 -4 10 3 6 8 10 11 10 2 0 4 -4 4 -10z m815 0 c3 -5 1 -10 -4
-10 -6 0 -11 5 -11 10 0 6 2 10 4 10 3 0 8 -4 11 -10z m-755 -20 c0 -5 -7 -10
-16 -10 -8 0 -12 5 -9 10 3 6 10 10 16 10 5 0 9 -4 9 -10z m2498 -74 c14 -9
35 -83 27 -96 -3 -6 -14 -10 -24 -10 -13 0 -17 -9 -18 -34 -1 -31 2 -35 33
-41 30 -5 34 -10 34 -35 0 -30 -13 -40 -25 -20 -3 6 -13 10 -21 10 -12 0 -12
-4 2 -31 10 -20 14 -48 12 -75 -2 -24 0 -44 4 -44 5 0 8 -9 8 -20 0 -21 -15
-27 -25 -10 -13 21 -20 0 -19 -52 1 -29 -3 -59 -8 -66 -7 -7 -9 -44 -5 -92 4
-70 3 -80 -11 -80 -34 0 -45 -18 -46 -69 -1 -28 2 -51 6 -51 3 0 4 -9 1 -21
-4 -13 1 -25 15 -35 18 -12 20 -18 10 -39 -7 -16 -20 -25 -33 -25 -15 0 -25
-8 -28 -22 -5 -18 -9 -19 -21 -9 -13 11 -16 9 -22 -13 -3 -15 -2 -39 4 -54 17
-44 22 -106 11 -122 -9 -12 -10 -12 -5 3 5 16 1 18 -26 15 -38 -4 -54 19 -64
95 -4 26 -11 50 -15 53 -17 10 -37 71 -32 96 4 19 10 24 24 21 17 -5 18 -1 12
28 -5 26 -3 31 9 27 12 -5 14 1 7 42 -4 27 -12 58 -18 69 -6 11 -10 30 -10 43
1 13 -2 43 -6 68 -4 30 -3 40 3 31 19 -26 32 0 32 64 0 86 14 115 53 111 22
-3 31 1 34 15 3 11 9 19 14 19 13 0 11 54 -2 67 -6 6 -18 9 -25 6 -8 -3 -14 1
-14 10 0 8 -5 17 -11 19 -5 2 -19 23 -29 46 l-19 43 23 9 c13 5 33 6 45 3 27
-7 27 3 -4 43 -15 20 -23 40 -19 51 3 10 8 24 10 32 3 10 7 11 19 1 10 -8 19
-9 32 -1 10 6 14 11 9 11 -5 0 -3 7 4 15 12 15 85 16 108 1z m-2301 -12 c-3
-3 -12 -4 -19 -1 -8 3 -5 6 6 6 11 1 17 -2 13 -5z m3233 -131 c0 -7 -4 -13 -9
-13 -10 0 -21 36 -20 65 0 16 4 13 14 -10 8 -16 14 -36 15 -42z m-3570 -33 c0
-5 -4 -10 -10 -10 -5 0 -10 5 -10 10 0 6 5 10 10 10 6 0 10 -4 10 -10z m3588
-50 c6 -56 0 -102 -12 -89 -2 2 -6 32 -9 67 -6 52 -4 60 6 50 8 -7 14 -19 15
-28z m38 5 c1 -14 -2 -22 -7 -19 -11 6 -12 44 -1 44 4 0 8 -11 8 -25z m494
-25 c0 -5 -2 -10 -4 -10 -3 0 -8 5 -11 10 -3 6 -1 10 4 10 6 0 11 -4 11 -10z
m-472 -35 c14 -31 16 -85 3 -85 -15 0 -21 15 -25 64 -5 51 5 60 22 21z m-974
-187 c7 -5 6 -8 -5 -8 -22 0 -28 8 -21 33 6 21 6 21 10 2 2 -11 9 -23 16 -27z
m-2354 -107 c0 -14 -18 -23 -30 -16 -6 4 -8 11 -5 16 8 12 35 12 35 0z m2191
-415 c5 3 9 0 9 -6 0 -15 -23 -7 -26 8 -1 7 0 8 3 2 2 -5 9 -8 14 -4z m-151
-106 c8 -16 7 -26 -5 -42 -15 -22 -15 -21 -15 20 0 47 4 51 20 22z m15 -110
c3 -5 1 -10 -4 -10 -6 0 -11 5 -11 10 0 6 2 10 4 10 3 0 8 -4 11 -10z m85 -16
c11 -27 5 -48 -10 -39 -5 3 -7 12 -4 19 3 8 1 17 -5 21 -14 8 -14 25 -1 25 6
0 15 -12 20 -26z m-30 -38 c0 -5 -7 -3 -15 4 -8 7 -12 17 -9 22 7 10 24 -9 24
-26z m1247 -8 c-3 -8 -6 -5 -6 6 -1 11 2 17 5 13 3 -3 4 -12 1 -19z m-1193
-87 c24 -26 17 -55 -14 -60 -14 -1 -27 -7 -30 -11 -11 -18 -5 -181 7 -188 6
-4 14 -24 18 -45 4 -20 12 -37 19 -37 8 0 8 -2 0 -8 -6 -4 -14 -17 -18 -30
-10 -31 -29 -16 -24 19 3 15 1 26 -3 23 -4 -2 -10 34 -14 81 -4 49 -11 82 -17
79 -5 -3 -9 15 -8 43 0 26 -3 69 -6 95 l-6 47 34 4 c18 2 36 5 39 5 3 1 14 -7
23 -17z m-1224 -81 c0 -11 -7 -20 -15 -20 -17 0 -18 2 -9 24 9 23 24 20 24 -4z
m1640 -1 c0 -11 5 -29 10 -40 13 -23 2 -98 -11 -78 -4 7 -5 17 -3 21 3 4 -1 5
-9 2 -20 -7 -33 66 -17 95 14 27 30 27 30 0z m-305 -58 c3 -5 1 -12 -5 -16 -5
-3 -10 1 -10 9 0 18 6 21 15 7z m-1955 -45 c0 -3 -4 -8 -10 -11 -5 -3 -10 -1
-10 4 0 6 5 11 10 11 6 0 10 -2 10 -4z m2230 -26 c0 -5 -2 -10 -4 -10 -3 0 -8
5 -11 10 -3 6 -1 10 4 10 6 0 11 -4 11 -10z m-2253 -32 c-3 -7 -5 -2 -5 12 0
14 2 19 5 13 2 -7 2 -19 0 -25z m73 2 c0 -5 -4 -10 -9 -10 -6 0 -13 5 -16 10
-3 6 1 10 9 10 9 0 16 -4 16 -10z m75 -20 c-5 -15 -2 -20 12 -21 14 0 15 -2 3
-6 -8 -3 -18 -10 -21 -16 -10 -15 -39 0 -39 20 0 15 18 30 48 42 2 0 0 -8 -3
-19z m2580 -9 c3 -5 1 -12 -5 -16 -5 -3 -10 1 -10 9 0 18 6 21 15 7z m-714
-50 c27 -28 40 -71 20 -71 -5 0 -12 -11 -15 -25 -14 -57 -56 -13 -56 59 0 75
7 80 51 37z m805 -18 c-10 -10 -19 5 -10 18 6 11 8 11 12 0 2 -7 1 -15 -2 -18z
m-1219 -30 c-3 -10 -5 -4 -5 12 0 17 2 24 5 18 2 -7 2 -21 0 -30z m-1400 -40
c-8 -7 -47 21 -47 34 0 7 9 13 20 13 11 0 21 6 22 13 0 6 3 -3 5 -21 3 -19 2
-36 0 -39z m2633 38 c0 -6 -4 -13 -10 -16 -5 -3 -10 1 -10 9 0 9 5 16 10 16 6
0 10 -4 10 -9z m-2903 -27 c3 -9 1 -19 -6 -23 -9 -6 -8 -15 3 -36 17 -33 5
-68 -22 -63 -32 6 -22 138 10 138 5 0 11 -7 15 -16z m1163 -4 c0 -11 -4 -20
-10 -20 -5 0 -10 9 -10 20 0 11 5 20 10 20 6 0 10 -9 10 -20z m537 -15 c0 -8
-5 -11 -10 -8 -5 3 -13 -1 -18 -8 -6 -10 -9 -6 -9 13 0 20 4 25 18 21 10 -2
19 -11 19 -18z m243 -99 c0 -6 9 3 20 19 14 21 20 25 20 13 0 -10 -4 -18 -8
-18 -10 0 -42 -88 -42 -117 0 -35 -18 -27 -35 15 -15 34 -15 40 -1 70 9 18 16
40 16 50 1 15 2 15 15 -2 8 -11 15 -25 15 -30z m90 4 c0 -5 -2 -10 -4 -10 -3
0 -8 5 -11 10 -3 6 -1 10 4 10 6 0 11 -4 11 -10z m810 0 c0 -5 -4 -10 -10 -10
-5 0 -10 5 -10 10 0 6 5 10 10 10 6 0 10 -4 10 -10z m40 -15 c0 -14 -4 -25 -9
-25 -5 0 -11 11 -13 25 -4 17 -1 25 8 25 8 0 14 -11 14 -25z m55 5 c3 -5 -1
-10 -9 -10 -9 0 -16 5 -16 10 0 6 4 10 9 10 6 0 13 -4 16 -10z m-2930 -40 c-4
-11 -2 -20 4 -20 6 0 11 3 11 8 0 4 11 8 25 8 15 1 25 -2 23 -8 -2 -5 -7 -9
-11 -9 -3 0 -20 -4 -37 -9 -33 -10 -48 5 -36 35 8 23 28 18 21 -5z m1965 -21
c0 -6 -4 -7 -10 -4 -5 3 -10 11 -10 16 0 6 5 7 10 4 6 -3 10 -11 10 -16z
m-273 -76 c-3 -10 -5 -4 -5 12 0 17 2 24 5 18 2 -7 2 -21 0 -30z m279 -21 c-9
-8 -14 0 -21 33 l-6 30 16 -28 c9 -16 14 -31 11 -35z m-205 -218 c6 -7 7 -23
4 -37 -9 -36 -43 -22 -59 24 -15 42 -7 80 19 89 17 6 20 2 23 -29 2 -20 8 -41
13 -47z m-5082 14 c1 -5 -3 -8 -9 -8 -5 0 -10 12 -9 28 0 24 1 25 9 7 5 -11 9
-23 9 -27z m5301 -99 c0 -41 -3 -58 -11 -53 -6 3 -9 17 -6 30 2 13 0 24 -4 24
-5 0 -9 -8 -9 -17 0 -27 -48 -69 -62 -55 -14 14 -54 16 -62 3 -4 -5 -3 -11 1
-14 5 -2 2 -2 -6 0 -7 2 -20 -5 -27 -14 -8 -11 -13 -13 -14 -5 0 20 -31 14
-37 -8 -9 -36 -28 -15 -31 34 -3 46 -3 47 22 40 15 -3 26 -2 26 4 0 6 23 10
55 9 30 -1 55 -5 55 -9 0 -5 12 -8 28 -8 20 0 32 9 47 33 10 17 20 37 21 42 1
6 2 13 3 18 0 4 3 7 6 7 3 0 5 -27 5 -61z m810 47 c0 -11 -19 -15 -25 -6 -3 5
1 10 9 10 9 0 16 -2 16 -4z m-634 -30 c10 -42 1 -71 -23 -74 -18 -3 -23 -10
-23 -34 0 -47 -6 -30 -14 34 -5 51 -4 60 16 78 28 26 36 25 44 -4z m-136 3 c0
-5 4 -8 9 -4 5 3 12 1 16 -5 3 -5 -1 -10 -9 -10 -8 0 -19 -7 -24 -16 -12 -21
-23 -4 -15 24 5 22 23 31 23 11z m-100 -19 c-8 -5 -19 -10 -25 -10 -5 0 -3 5
5 10 8 5 20 10 25 10 6 0 3 -5 -5 -10z m1030 -36 c0 -14 -4 -23 -10 -19 -5 3
-10 15 -10 26 0 10 5 19 10 19 6 0 10 -12 10 -26z m-890 -38 c0 -10 -7 -12
-22 -8 -21 5 -21 6 -2 13 10 4 20 8 22 8 1 1 2 -5 2 -13z m1050 4 c0 -5 -4
-10 -10 -10 -5 0 -10 5 -10 10 0 6 5 10 10 10 6 0 10 -4 10 -10z m-1230 -30
c0 -5 -5 -10 -11 -10 -5 0 -7 5 -4 10 3 6 8 10 11 10 2 0 4 -4 4 -10z m370 -5
c0 -8 -2 -15 -4 -15 -2 0 -6 7 -10 15 -3 8 -1 15 4 15 6 0 10 -7 10 -15z m9
-87 l-1 -53 -8 40 c-7 36 -4 65 6 65 2 0 3 -24 3 -52z m-5341 -45 c15 -63 47
-504 38 -536 -7 -29 -29 -37 -107 -37 l-57 0 -41 133 c-23 72 -47 143 -53 157
-6 14 -14 42 -18 63 -7 36 -4 43 56 124 64 86 125 142 155 143 11 0 19 -15 27
-47z m4982 15 c0 -19 -2 -20 -10 -8 -13 19 -13 30 0 30 6 0 10 -10 10 -22z
m276 -23 c3 -14 10 -25 15 -25 5 0 9 -5 9 -11 0 -6 -7 -9 -15 -5 -8 3 -15 0
-15 -7 0 -7 -7 1 -15 16 -14 27 -11 57 6 57 5 0 11 -11 15 -25z m-43 -154 c5
-131 5 -132 -14 -112 -14 14 -18 28 -13 46 3 14 2 25 -4 25 -6 0 -7 13 -2 35
5 20 4 33 -1 29 -11 -6 -11 25 -3 89 5 37 9 43 19 33 8 -8 14 -59 18 -145z
m834 115 c-8 -19 -37 -21 -37 -3 0 7 5 18 12 25 15 15 33 -1 25 -22z m-930
-23 c-3 -10 -5 -4 -5 12 0 17 2 24 5 18 2 -7 2 -21 0 -30z m-133 -61 c-5 -22
-12 -32 -25 -32 -11 0 -19 7 -19 16 0 8 4 13 9 10 5 -4 12 8 16 25 9 41 27 23
19 -19z m-117 -3 c2 -22 2 -22 -6 -4 -8 16 -10 17 -10 3 -1 -9 3 -19 9 -23 13
-8 1 -35 -16 -35 -14 0 -18 -27 -14 -80 1 -20 -1 -22 -11 -13 -12 12 -14 70
-4 104 4 11 2 19 -2 19 -11 0 -11 40 0 57 12 20 52 -1 54 -28z m398 1 c-3 -5
-12 -10 -18 -10 -7 0 -6 4 3 10 19 12 23 12 15 0z m-272 -197 c-7 -2 -19 -2
-25 0 -7 3 -2 5 12 5 14 0 19 -2 13 -5z m-223 -33 c0 -5 -4 -10 -10 -10 -5 0
-10 5 -10 10 0 6 5 10 10 10 6 0 10 -4 10 -10z m-2 -55 c-3 -3 -9 2 -12 12 -6
14 -5 15 5 6 7 -7 10 -15 7 -18z m1042 6 c0 -6 -4 -13 -10 -16 -5 -3 -10 1
-10 9 0 9 5 16 10 16 6 0 10 -4 10 -9z m-600 -26 c0 -8 -4 -15 -10 -15 -5 0
-7 7 -4 15 4 8 8 15 10 15 2 0 4 -7 4 -15z m80 -64 c0 -25 1 -57 2 -70 5 -39
-20 -36 -28 3 -4 26 -11 36 -25 36 -31 0 -43 36 -23 69 15 26 20 28 46 19 26
-9 28 -14 28 -57z m-523 -18 c-3 -10 -5 -4 -5 12 0 17 2 24 5 18 2 -7 2 -21 0
-30z m475 -55 c-9 -9 -12 -7 -12 12 0 19 3 21 12 12 9 -9 9 -15 0 -24z m458
-20 c0 -19 -16 -32 -29 -24 -5 4 -5 18 2 36 11 30 27 23 27 -12z m-250 12 c0
-5 -5 -10 -11 -10 -5 0 -7 5 -4 10 3 6 8 10 11 10 2 0 4 -4 4 -10z m-210 -100
c0 -22 -3 -40 -8 -40 -4 0 -6 18 -4 40 2 22 6 40 8 40 2 0 4 -18 4 -40z"/>
<path d="M4750 6691 c0 -6 5 -13 10 -16 6 -3 10 1 10 9 0 9 -4 16 -10 16 -5 0
-10 -4 -10 -9z"/>
<path d="M4205 6540 c3 -5 14 -10 23 -10 15 0 15 2 2 10 -20 13 -33 13 -25 0z"/>
<path d="M4450 6000 c0 -5 7 -10 16 -10 8 0 12 5 9 10 -3 6 -10 10 -16 10 -5
0 -9 -4 -9 -10z"/>
<path d="M3285 5920 c-3 -5 1 -10 9 -10 9 0 16 5 16 10 0 6 -4 10 -9 10 -6 0
-13 -4 -16 -10z"/>
<path d="M4238 5899 c-10 -5 -14 -17 -11 -29 6 -22 18 -18 33 10 12 22 1 32
-22 19z"/>
<path d="M3961 5813 c-7 -8 -11 -16 -8 -19 6 -7 37 7 37 16 0 16 -15 18 -29 3z"/>
<path d="M3996 5798 c-19 -38 -19 -39 -3 -35 18 3 44 67 27 67 -5 0 -16 -14
-24 -32z"/>
<path d="M3850 5812 c0 -15 39 -42 46 -31 3 6 -2 17 -12 24 -21 16 -34 19 -34
7z"/>
<path d="M4233 5787 c5 -15 37 -22 37 -9 0 5 -9 12 -21 15 -13 3 -19 1 -16 -6z"/>
<path d="M4200 5770 c0 -5 5 -10 10 -10 6 0 10 5 10 10 0 6 -4 10 -10 10 -5 0
-10 -4 -10 -10z"/>
<path d="M3725 5740 c3 -5 8 -10 11 -10 2 0 4 5 4 10 0 6 -5 10 -11 10 -5 0
-7 -4 -4 -10z"/>
<path d="M3757 5704 c-7 -8 4 -44 14 -44 12 0 12 37 0 44 -4 3 -11 3 -14 0z"/>
<path d="M3330 2776 c0 -2 7 -6 15 -10 8 -3 15 -1 15 4 0 6 -7 10 -15 10 -8 0
-15 -2 -15 -4z"/>
<path d="M3200 2537 c0 -22 31 -57 50 -57 19 0 10 28 -10 33 -12 3 -20 14 -20
26 0 12 -4 21 -10 21 -5 0 -10 -10 -10 -23z"/>
<path d="M3270 2449 c0 -5 5 -7 10 -4 6 3 10 8 10 11 0 2 -4 4 -10 4 -5 0 -10
-5 -10 -11z"/>
<path d="M4389 2226 c-7 -14 -16 -26 -21 -26 -5 0 -13 -12 -19 -26 -7 -21 -6
-31 8 -46 9 -10 22 -17 29 -14 7 3 16 -4 19 -15 10 -31 50 -45 70 -25 9 9 21
14 26 11 5 -4 9 1 9 9 0 9 -4 16 -9 16 -6 0 -10 24 -10 53 1 72 1 74 -13 74
-7 0 -28 3 -45 7 -29 7 -34 4 -44 -18z m88 -78 c-3 -8 -6 -5 -6 6 -1 11 2 17
5 13 3 -3 4 -12 1 -19z"/>
<path d="M4572 2190 c-8 -16 -12 -38 -10 -47 3 -14 8 -10 21 16 9 19 17 40 17
48 0 23 -15 14 -28 -17z"/>
<path d="M4530 2130 c0 -5 5 -10 10 -10 6 0 10 5 10 10 0 6 -4 10 -10 10 -5 0
-10 -4 -10 -10z"/>
<path d="M3310 6870 c0 -5 5 -10 10 -10 6 0 10 5 10 10 0 6 -4 10 -10 10 -5 0
-10 -4 -10 -10z"/>
<path d="M3296 6847 c3 -10 9 -15 12 -12 3 3 0 11 -7 18 -10 9 -11 8 -5 -6z"/>
<path d="M2960 6820 c0 -5 5 -10 10 -10 6 0 10 5 10 10 0 6 -4 10 -10 10 -5 0
-10 -4 -10 -10z"/>
<path d="M3405 6451 c-3 -5 -2 -12 3 -15 5 -3 9 1 9 9 0 17 -3 19 -12 6z"/>
<path d="M3086 5805 c7 -17 13 -18 32 -6 11 7 10 10 -3 15 -26 10 -35 7 -29
-9z"/>
<path d="M3018 5793 c7 -3 16 -2 19 1 4 3 -2 6 -13 5 -11 0 -14 -3 -6 -6z"/>
<path d="M3060 5769 c0 -5 5 -7 10 -4 6 3 10 8 10 11 0 2 -4 4 -10 4 -5 0 -10
-5 -10 -11z"/>
<path d="M3318 5573 c7 -3 16 -2 19 1 4 3 -2 6 -13 5 -11 0 -14 -3 -6 -6z"/>
<path d="M2871 4727 c-7 -9 -10 -25 -6 -34 6 -17 7 -17 16 0 6 10 9 25 7 34
-3 15 -4 15 -17 0z"/>
<path d="M2930 4546 c0 -2 9 -6 20 -9 11 -3 20 -1 20 4 0 5 -9 9 -20 9 -11 0
-20 -2 -20 -4z"/>
<path d="M3047 4466 c-4 -9 2 -17 13 -21 10 -3 22 -15 25 -26 9 -29 25 -23 25
9 0 21 -7 32 -25 40 -32 15 -32 15 -38 -2z"/>
<path d="M2724 4224 c3 -8 2 -13 -3 -10 -5 3 -14 0 -20 -8 -9 -10 -8 -16 4
-26 8 -7 15 -20 16 -29 0 -10 2 -11 6 -3 2 6 12 12 21 12 15 1 14 3 -2 15 -20
15 -18 17 16 19 25 1 27 19 3 22 -11 2 -21 8 -23 13 -2 6 -8 11 -14 11 -6 0
-7 -7 -4 -16z"/>
<path d="M3005 3830 c-3 -5 0 -10 8 -10 10 0 13 -7 10 -20 -4 -14 0 -20 10
-20 13 0 14 5 6 30 -11 31 -23 38 -34 20z"/>
<path d="M2960 3764 c0 -8 5 -12 10 -9 6 4 8 11 5 16 -9 14 -15 11 -15 -7z"/>
<path d="M5690 4169 c0 -5 5 -7 10 -4 6 3 10 8 10 11 0 2 -4 4 -10 4 -5 0 -10
-5 -10 -11z"/>
<path d="M5360 3235 c0 -9 5 -15 11 -13 6 2 11 8 11 13 0 5 -5 11 -11 13 -6 2
-11 -4 -11 -13z"/>
<path d="M5405 3230 c3 -5 8 -10 11 -10 2 0 4 5 4 10 0 6 -5 10 -11 10 -5 0
-7 -4 -4 -10z"/>
<path d="M5305 3180 c-3 -5 1 -10 9 -10 9 0 16 5 16 10 0 6 -4 10 -9 10 -6 0
-13 -4 -16 -10z"/>
<path d="M5400 3067 c0 -21 11 -47 19 -47 12 0 6 53 -6 58 -7 2 -13 -3 -13
-11z"/>
<path d="M5391 2904 c0 -11 3 -14 6 -6 3 7 2 16 -1 19 -3 4 -6 -2 -5 -13z"/>
<path d="M5272 2750 c0 -16 3 -30 7 -30 5 0 7 12 5 26 -4 37 -11 39 -12 4z"/>
<path d="M5276 2363 c-7 -17 19 -52 30 -40 9 8 -4 57 -15 57 -5 0 -12 -8 -15
-17z"/>
<path d="M1743 4843 c-57 -5 -55 -23 2 -23 33 0 45 4 45 15 0 8 -1 14 -2 13
-2 -1 -22 -3 -45 -5z"/>
<path d="M1810 4809 c0 -5 5 -7 10 -4 6 3 10 8 10 11 0 2 -4 4 -10 4 -5 0 -10
-5 -10 -11z"/>
<path d="M1840 4810 c0 -5 6 -10 14 -10 8 0 18 5 21 10 3 6 -3 10 -14 10 -12
0 -21 -4 -21 -10z"/>
<path d="M1576 4594 c-11 -8 -16 -14 -10 -14 13 0 39 18 34 24 -3 2 -14 -2
-24 -10z"/>
<path d="M1583 4540 c-4 -17 -11 -20 -29 -16 -21 6 -23 4 -15 -16 6 -16 18
-24 41 -26 19 -2 30 1 26 6 -3 6 1 12 9 16 22 8 18 33 -6 46 -17 10 -21 8 -26
-10z"/>
<path d="M640 4509 c0 -5 5 -7 10 -4 6 3 10 8 10 11 0 2 -4 4 -10 4 -5 0 -10
-5 -10 -11z"/>
<path d="M575 4470 c-3 -5 1 -10 9 -10 9 0 16 5 16 10 0 6 -4 10 -9 10 -6 0
-13 -4 -16 -10z"/>
<path d="M1250 4470 c0 -5 5 -10 11 -10 5 0 7 5 4 10 -3 6 -8 10 -11 10 -2 0
-4 -4 -4 -10z"/>
<path d="M485 4430 c-11 -18 10 -32 41 -28 40 4 38 32 -3 36 -17 2 -34 -2 -38
-8z"/>
<path d="M340 4399 c0 -18 5 -20 47 -16 55 4 67 22 22 31 -55 11 -69 8 -69
-15z"/>
<path d="M285 4390 c-3 -5 1 -10 10 -10 9 0 13 5 10 10 -3 6 -8 10 -10 10 -2
0 -7 -4 -10 -10z"/>
<path d="M498 4373 c7 -3 16 -2 19 1 4 3 -2 6 -13 5 -11 0 -14 -3 -6 -6z"/>
<path d="M6790 4248 c0 -12 18 -19 25 -9 3 6 12 8 20 4 8 -3 15 0 15 6 0 5
-13 9 -30 8 -16 -1 -30 -5 -30 -9z"/>
<path d="M7025 3140 c-3 -5 4 -11 15 -15 11 -3 20 -11 20 -16 0 -5 5 -9 10 -9
6 0 10 6 10 13 0 17 -47 40 -55 27z"/>
<path d="M6207 2666 c-6 -15 1 -26 15 -26 11 0 10 27 -1 34 -5 3 -11 0 -14 -8z"/>
<path d="M6450 2526 c0 -22 3 -27 11 -19 8 8 8 16 0 30 -9 16 -10 14 -11 -11z"/>
<path d="M6200 2440 c0 -5 9 -10 20 -10 11 0 20 5 20 10 0 6 -9 10 -20 10 -11
0 -20 -4 -20 -10z"/>
<path d="M6315 2302 c-2 -7 -1 -11 4 -8 5 3 12 -1 15 -10 8 -20 26 -9 26 16 0
22 -36 24 -45 2z"/>
<path d="M6376 2103 c-4 -9 -2 -21 4 -27 7 -7 10 -2 10 17 0 31 -5 34 -14 10z"/>
<path d="M6358 2034 c3 -17 8 -22 15 -15 11 11 3 41 -11 41 -5 0 -7 -12 -4
-26z"/>
<path d="M6051 2024 c0 -11 3 -14 6 -6 3 7 2 16 -1 19 -3 4 -6 -2 -5 -13z"/>
<path d="M6050 1971 c0 -6 5 -13 10 -16 6 -3 10 1 10 9 0 9 -4 16 -10 16 -5 0
-10 -4 -10 -9z"/>
<path d="M6060 1873 c0 -5 5 -15 10 -23 8 -12 10 -11 10 8 0 12 -4 22 -10 22
-5 0 -10 -3 -10 -7z"/>
<path d="M6391 1853 c0 -15 4 -46 8 -68 8 -38 9 -39 10 -8 0 17 6 35 11 38 17
11 11 44 -10 55 -18 10 -20 8 -19 -17z"/>
<path d="M6550 1804 c0 -14 4 -23 10 -19 6 3 10 15 10 26 0 10 -4 19 -10 19
-5 0 -10 -12 -10 -26z"/>
<path d="M460 1579 c0 -5 5 -7 10 -4 6 3 10 8 10 11 0 2 -4 4 -10 4 -5 0 -10
-5 -10 -11z"/>
<path d="M6391 1564 c0 -11 3 -14 6 -6 3 7 2 16 -1 19 -3 4 -6 -2 -5 -13z"/>
<path d="M850 1486 c0 -8 5 -18 10 -21 6 -3 10 1 10 9 0 8 -4 18 -10 21 -5 3
-10 -1 -10 -9z"/>
<path d="M6501 1474 c0 -11 3 -14 6 -6 3 7 2 16 -1 19 -3 4 -6 -2 -5 -13z"/>
<path d="M5650 1419 c0 -29 2 -50 5 -47 11 11 15 87 5 93 -6 4 -10 -13 -10
-46z"/>
<path d="M5545 1419 c-4 -11 -4 -23 -1 -26 3 -4 6 1 6 10 0 20 16 23 23 5 2
-7 8 -10 12 -6 8 8 -12 38 -26 38 -4 0 -11 -9 -14 -21z"/>
<path d="M5475 1410 c3 -5 10 -10 16 -10 5 0 9 5 9 10 0 6 -7 10 -16 10 -8 0
-12 -4 -9 -10z"/>
<path d="M5501 1363 c1 -10 5 -29 9 -43 7 -21 8 -19 9 18 1 23 -3 42 -9 42 -5
0 -10 -8 -9 -17z"/>
<path d="M5660 1339 c0 -5 5 -7 10 -4 6 3 10 8 10 11 0 2 -4 4 -10 4 -5 0 -10
-5 -10 -11z"/>
<path d="M5700 1325 c0 -8 5 -15 10 -15 6 0 10 7 10 15 0 8 -4 15 -10 15 -5 0
-10 -7 -10 -15z"/>
<path d="M6069 1303 c-2 -21 -2 -54 1 -73 5 -34 6 -35 52 -35 25 0 50 -3 54
-7 15 -16 25 -7 22 20 -2 17 -8 26 -17 24 -9 -2 -12 4 -8 18 4 17 3 19 -8 10
-8 -7 -15 -7 -19 -1 -4 5 -2 12 4 16 21 13 -3 25 -38 20 -34 -6 -36 -5 -18 9
19 15 14 36 -9 36 -8 0 -14 -15 -16 -37z"/>
<path d="M5848 1293 c-2 -5 -1 -28 2 -52 4 -37 7 -42 17 -29 9 10 10 24 2 51
-10 37 -15 44 -21 30z"/>
<path d="M5655 1270 c-4 -6 -4 -22 -1 -35 5 -21 10 -23 44 -18 45 7 44 6 36
27 -3 9 -10 13 -15 10 -6 -3 -16 0 -24 6 -8 7 -15 9 -15 4 0 -5 -4 -3 -9 5 -6
10 -10 10 -16 1z"/>
<path d="M6985 1238 c-4 -10 -18 -18 -31 -18 -13 0 -41 -17 -65 -39 -37 -34
-43 -47 -60 -122 -13 -59 -15 -87 -7 -96 13 -17 12 -117 -3 -144 -25 -47 -49
-159 -55 -254 -4 -55 -11 -105 -16 -112 -5 -7 -7 -17 -4 -22 4 -5 0 -25 -8
-43 -12 -28 -23 -90 -41 -233 -2 -16 -1 -58 2 -92 l5 -63 119 0 c137 0 144 6
84 68 -19 20 -54 65 -76 99 -32 49 -40 70 -40 105 1 24 1 69 0 101 0 42 6 68
20 93 12 19 21 42 21 50 0 9 30 45 66 80 60 58 70 64 98 59 17 -4 43 -8 59 -9
l27 -3 0 285 0 285 -28 -6 c-33 -7 -48 1 -54 28 -4 18 -6 18 -13 3z"/>
<path d="M5858 1183 c7 -3 16 -2 19 1 4 3 -2 6 -13 5 -11 0 -14 -3 -6 -6z"/>
<path d="M5850 1145 c0 -8 -4 -15 -10 -15 -5 0 -10 -8 -10 -17 0 -15 -2 -14
-15 3 -13 17 -14 17 -15 2 0 -17 -19 -23 -62 -19 -15 2 -18 -6 -18 -38 0 -22
5 -43 12 -47 7 -4 8 -3 4 4 -4 7 -3 12 3 12 5 0 11 12 13 28 3 25 6 27 43 24
22 -2 42 -6 45 -8 4 -5 -15 -20 -33 -27 -5 -1 -5 -10 -2 -19 5 -13 15 -15 41
-11 40 7 47 -12 8 -21 -22 -6 -25 -11 -20 -39 3 -18 3 -26 0 -19 -20 45 -74
75 -74 41 0 -6 -7 -17 -15 -26 -12 -12 -15 -31 -12 -84 5 -69 20 -105 40 -92
5 3 15 -1 21 -9 13 -17 56 -30 56 -18 0 5 -4 11 -9 14 -13 8 -2 43 15 50 8 3
14 15 14 26 0 11 4 20 9 20 4 0 8 -12 8 -27 1 -16 4 -50 8 -78 3 -27 6 -58 6
-67 0 -10 4 -18 10 -18 5 0 9 8 9 18 0 13 2 14 9 3 5 -8 7 5 3 35 -2 27 -8 51
-12 54 -13 9 -18 88 -7 99 8 8 8 14 0 22 -9 9 -9 17 0 32 9 15 9 21 0 24 -7 3
-13 15 -13 28 0 13 -4 34 -9 47 -21 52 -24 64 -22 96 2 17 -2 32 -8 32 -6 0
-11 -7 -11 -15z m14 -180 c-4 -8 -10 -12 -15 -9 -14 8 -10 24 6 24 9 0 12 -6
9 -15z m6 -86 c0 -6 -8 -21 -18 -33 -17 -22 -17 -22 -19 21 -1 39 0 42 18 33
10 -6 19 -15 19 -21z"/>
<path d="M5957 1114 c-8 -8 3 -34 14 -34 11 0 12 27 0 34 -4 3 -11 3 -14 0z"/>
<path d="M5950 1006 c-9 -11 -9 -20 0 -37 7 -12 12 -45 11 -73 0 -59 15 -96
25 -58 4 13 14 22 25 22 23 0 25 15 4 24 -8 3 -15 0 -15 -6 0 -6 -3 -9 -6 -5
-4 3 3 22 14 42 17 28 18 35 7 35 -8 0 -15 5 -15 10 0 6 7 10 15 10 8 0 15 5
15 11 0 7 -10 9 -25 5 -18 -5 -25 -2 -25 8 0 22 -16 28 -30 12z"/>
<path d="M5970 742 c0 -37 -4 -82 -9 -100 -11 -37 -4 -40 33 -11 22 17 26 29
26 69 0 30 -5 52 -15 60 -8 7 -15 21 -15 31 0 11 -4 19 -10 19 -6 0 -10 -29
-10 -68z"/>
<path d="M6520 730 c-9 -16 -7 -28 4 -52 9 -17 16 -38 17 -47 0 -9 7 -3 14 14
l13 30 5 -25 c2 -14 5 -1 6 28 0 29 -3 52 -9 52 -5 0 -10 -4 -10 -10 0 -5 -7
-10 -16 -10 -11 0 -14 6 -9 20 8 26 -1 26 -15 0z"/>
<path d="M6074 636 c-3 -9 -12 -16 -19 -16 -7 0 -15 -7 -19 -15 -3 -8 -11 -12
-19 -9 -17 6 -41 -21 -31 -37 6 -11 10 -29 13 -72 2 -34 21 -6 21 31 0 44 8
57 38 66 18 6 22 4 22 -14 0 -12 4 -19 10 -15 9 6 6 82 -4 93 -3 2 -8 -3 -12
-12z"/>
<path d="M5805 630 c-3 -5 -4 -14 0 -19 10 -17 -12 -21 -26 -5 -12 15 -14 14
-19 0 -8 -24 0 -96 11 -96 23 0 50 -40 52 -76 2 -32 7 -39 30 -45 19 -5 27 -4
27 6 0 7 -10 15 -21 18 -16 4 -20 11 -15 23 4 10 9 43 13 74 5 51 3 59 -16 72
-13 9 -19 21 -16 31 7 17 -10 32 -20 17z"/>
<path d="M5908 568 c-2 -13 0 -45 5 -73 4 -27 8 -62 9 -77 1 -29 12 -36 23
-18 4 6 2 16 -4 23 -5 7 -8 34 -5 60 2 29 0 47 -6 47 -7 0 -7 6 0 20 11 21 6
40 -10 40 -5 0 -10 -10 -12 -22z"/>
<path d="M6306 511 c-3 -5 -2 -20 3 -33 6 -12 10 -17 10 -9 1 11 4 11 16 1 9
-7 18 -10 22 -6 3 3 1 6 -5 6 -6 0 -12 10 -14 22 -3 23 -23 35 -32 19z"/>
<path d="M6391 476 c-9 -11 -8 -15 6 -20 10 -4 14 -4 10 0 -4 4 -2 13 4 21 7
8 8 13 1 13 -5 0 -15 -6 -21 -14z"/>
<path d="M5987 433 c-3 -2 -1 -18 5 -33 8 -26 12 -28 29 -17 10 6 19 17 19 23
0 12 -45 36 -53 27z"/>
<path d="M6417 402 c-11 -2 -16 -10 -13 -18 3 -7 2 -13 -2 -12 -4 1 -15 -2
-26 -7 -11 -5 -26 -3 -39 4 -19 12 -20 11 -15 -27 4 -23 1 -45 -5 -51 -8 -8
-7 -11 2 -11 9 0 11 -8 7 -25 -4 -14 -2 -35 4 -46 8 -14 8 -24 1 -33 -7 -8 -4
-15 10 -24 20 -13 26 -42 9 -42 -5 0 -9 -17 -8 -38 1 -20 -2 -45 -6 -54 -7
-15 5 -17 144 -17 113 -1 157 3 171 13 16 11 17 15 5 19 -8 3 -18 23 -22 44
-4 21 -15 52 -24 68 -9 17 -15 35 -13 40 1 6 -9 16 -24 22 -32 15 -46 2 -36
-34 4 -20 1 -23 -21 -23 -17 0 -29 7 -32 18 -3 9 -10 26 -14 37 -16 37 -17 50
-9 79 8 28 -6 113 -20 119 -3 2 -14 2 -24 -1z m118 -287 c0 -22 -22 -30 -44
-16 -21 14 -5 43 21 39 15 -2 23 -10 23 -23z m1 -49 c8 -8 14 -25 13 -38 -1
-22 -1 -21 -11 5 -5 15 -14 27 -19 27 -5 0 -9 5 -9 10 0 14 9 12 26 -4z m61
-18 c-3 -8 -6 -5 -6 6 -1 11 2 17 5 13 3 -3 4 -12 1 -19z"/>
<path d="M5955 380 c3 -5 8 -10 11 -10 2 0 4 5 4 10 0 6 -5 10 -11 10 -5 0 -7
-4 -4 -10z"/>
<path d="M5797 343 c-3 -24 0 -43 9 -53 12 -12 14 -12 14 3 0 9 5 17 11 17 7
0 10 12 7 29 -2 17 -1 28 3 25 4 -2 10 0 14 6 4 6 -6 10 -23 10 -27 0 -30 -4
-35 -37z"/>
<path d="M6020 361 c0 -11 4 -22 9 -25 11 -7 23 22 15 35 -9 16 -24 10 -24
-10z"/>
<path d="M6060 344 c0 -19 4 -33 8 -30 8 5 4 66 -4 66 -2 0 -4 -16 -4 -36z"/>
<path d="M6564 349 c3 -17 6 -38 6 -45 0 -26 16 -14 29 21 14 40 9 55 -21 55
-18 0 -20 -4 -14 -31z"/>
<path d="M5860 230 c0 -5 5 -10 10 -10 6 0 10 5 10 10 0 6 -4 10 -10 10 -5 0
-10 -4 -10 -10z"/>
<path d="M6490 196 c0 -9 5 -16 10 -16 6 0 10 4 10 9 0 6 -4 13 -10 16 -5 3
-10 -1 -10 -9z"/>
</g>
</svg>
