<?xml version="1.0" standalone="no"?>
<!DOCTYPE svg PUBLIC "-//W3C//DTD SVG 20010904//EN"
 "http://www.w3.org/TR/2001/REC-SVG-20010904/DTD/svg10.dtd">
<svg version="1.0" xmlns="http://www.w3.org/2000/svg"
 width="1536.000000pt" height="1536.000000pt" viewBox="0 0 1536.000000 1536.000000"
 preserveAspectRatio="xMidYMid meet">

<g transform="translate(0.000000,1536.000000) scale(0.100000,-0.100000)"
fill="#000000" stroke="none">
<path d="M7640 13009 c-218 -32 -230 -33 -230 -20 0 22 -293 -17 -367 -49 -55
-24 -58 -50 -5 -51 20 0 89 -5 152 -10 146 -12 156 -12 325 -6 139 5 161 7
180 19 6 3 28 9 49 14 58 10 129 63 135 99 3 13 -34 23 -79 23 -19 0 -91 -9
-160 -19z"/>
<path d="M6732 12860 c-40 -16 -92 -62 -92 -80 0 -24 -29 -48 -39 -32 -7 12
-84 -1 -88 -15 -2 -5 -21 -7 -43 -5 -35 4 -41 1 -51 -22 -15 -31 -23 -32 -42
-6 -11 16 -21 19 -55 14 -27 -4 -42 -2 -42 5 0 23 -48 9 -92 -27 -31 -26 -64
-42 -101 -51 -47 -10 -59 -18 -82 -51 -15 -22 -31 -40 -36 -40 -12 0 -90 -76
-103 -102 -7 -13 -16 -36 -20 -51 -3 -15 -13 -27 -22 -27 -8 0 -23 -13 -32
-30 -18 -32 -31 -37 -50 -18 -10 10 -17 7 -35 -15 -17 -21 -35 -30 -77 -36
-106 -18 -198 -76 -251 -159 -15 -23 -44 -54 -65 -69 -22 -14 -45 -34 -52 -44
-6 -9 -28 -23 -47 -29 -40 -13 -50 -28 -60 -87 -6 -39 -5 -43 24 -58 39 -20
39 -38 1 -65 -17 -12 -39 -38 -49 -59 -27 -53 -42 -62 -111 -68 -49 -5 -65
-11 -80 -31 -11 -13 -20 -30 -20 -36 0 -6 -16 -29 -36 -50 -46 -51 -52 -67
-60 -178 -4 -63 -14 -114 -31 -158 -19 -49 -27 -90 -30 -170 -5 -100 -7 -106
-36 -137 -26 -28 -30 -39 -28 -83 1 -37 -2 -50 -13 -50 -25 0 -117 -81 -132
-116 -8 -18 -20 -79 -28 -136 -8 -57 -24 -132 -35 -168 -12 -36 -21 -80 -21
-98 0 -18 -6 -45 -14 -60 -7 -15 -16 -44 -20 -64 -9 -48 -32 -72 -82 -87 -25
-6 -49 -21 -58 -36 -9 -14 -23 -25 -31 -25 -9 0 -16 -16 -21 -47 -4 -26 -15
-61 -25 -78 -11 -16 -19 -37 -19 -46 0 -9 -11 -24 -25 -33 -24 -15 -25 -15
-30 6 -3 13 -6 50 -7 83 l-3 60 -37 3 c-26 2 -42 -2 -53 -15 -41 -47 -65 -82
-65 -97 0 -19 -42 -41 -96 -50 -42 -7 -94 -46 -94 -70 0 -8 -15 -29 -32 -48
-18 -18 -38 -42 -44 -53 -7 -13 -26 -22 -52 -26 -45 -6 -84 -34 -80 -57 3 -16
-77 -50 -120 -51 -13 -1 -50 -13 -83 -28 -68 -32 -79 -61 -31 -79 29 -11 42
-42 42 -99 0 -33 37 -75 66 -75 14 0 40 11 59 25 41 32 40 32 260 22 116 -5
190 -5 207 2 36 14 79 99 92 186 9 53 16 71 29 73 19 4 20 -4 18 -128 -1 -65
25 -183 39 -175 4 3 7 -19 6 -48 -1 -45 2 -53 22 -62 28 -12 28 -29 1 -80 -17
-32 -20 -51 -16 -98 4 -45 2 -60 -9 -64 -22 -8 -17 -31 9 -39 12 -4 47 -10 77
-13 55 -6 55 -6 55 -41 0 -19 7 -46 14 -59 11 -20 11 -25 0 -32 -19 -12 -33
-11 -47 3 -19 19 -50 -15 -32 -36 7 -9 19 -16 27 -16 10 0 13 -9 11 -27 -2
-23 -8 -28 -32 -28 -34 -1 -70 -40 -60 -64 4 -9 10 -56 14 -106 9 -106 13
-116 48 -142 59 -43 70 -46 138 -32 55 11 67 11 79 -2 21 -21 58 -168 52 -205
-3 -18 0 -37 6 -43 12 -12 -4 -70 -39 -141 -29 -57 -48 -104 -64 -155 -7 -22
-24 -50 -36 -62 -13 -12 -24 -28 -24 -36 0 -8 -9 -22 -21 -33 -45 -41 -50 -65
-40 -192 10 -127 6 -175 -15 -192 -9 -8 -10 -18 -4 -36 6 -14 6 -34 1 -47 -5
-12 -14 -44 -20 -72 -7 -27 -18 -57 -26 -65 -21 -23 -34 -96 -35 -186 0 -66
-4 -86 -20 -105 -84 -102 -119 -139 -143 -149 -34 -15 -67 -56 -67 -82 0 -11
-6 -34 -14 -51 -8 -18 -17 -45 -21 -61 l-6 -29 -29 28 c-26 25 -33 27 -55 17
-20 -9 -25 -19 -25 -46 0 -46 28 -72 102 -92 59 -17 80 -44 34 -44 -40 0 -87
-12 -84 -22 2 -5 57 -27 123 -49 119 -40 121 -41 235 -35 84 3 143 13 220 34
161 45 214 63 230 80 13 13 11 13 -20 7 -19 -3 -84 -10 -145 -15 -60 -5 -150
-13 -198 -18 -48 -4 -90 -6 -92 -3 -10 10 -4 38 20 89 23 49 31 56 90 78 11 4
72 8 135 10 63 1 133 4 155 7 123 17 178 19 185 6 5 -7 6 -36 3 -64 -4 -39 -1
-58 12 -78 15 -24 15 -28 1 -49 -17 -24 -113 -88 -132 -88 -7 0 -65 -18 -130
-39 -66 -22 -149 -42 -186 -46 -55 -5 -72 -12 -97 -36 -51 -48 -142 -38 -256
28 -114 67 -272 120 -293 98 -12 -13 126 -129 196 -164 37 -19 74 -40 82 -47
18 -14 230 -124 230 -119 0 2 13 0 29 -5 66 -19 31 67 -36 90 -53 19 -41 37
30 44 77 8 162 8 297 0 99 -5 108 -4 152 20 26 14 66 30 90 37 23 6 74 31 112
56 69 44 72 45 136 41 68 -6 179 -45 214 -76 23 -21 90 -42 130 -42 45 0 180
-31 194 -44 7 -7 17 -48 22 -92 27 -244 92 -512 164 -683 49 -117 22 -100 736
-449 63 -30 149 -74 190 -97 113 -63 205 -113 310 -168 52 -27 100 -53 105
-57 25 -20 279 -121 360 -144 148 -42 389 -133 472 -180 15 -8 69 -32 118 -52
50 -19 116 -49 149 -66 38 -19 66 -28 82 -24 13 4 51 39 85 79 34 39 87 99
118 132 31 33 79 86 106 119 27 32 64 74 83 95 46 49 146 172 158 193 5 9 30
38 55 65 25 26 69 80 98 118 30 39 66 84 81 100 37 41 86 127 160 280 121 251
127 272 155 505 3 25 8 164 11 310 5 213 3 289 -10 387 -9 67 -16 139 -16 160
0 21 -7 49 -16 61 -25 36 -12 52 45 52 42 0 53 4 70 26 12 15 21 31 21 36 0 5
18 31 40 59 22 28 40 57 40 64 0 7 6 18 14 25 21 17 59 136 51 160 -8 25 11
27 24 2 12 -22 15 -154 6 -236 -5 -44 -3 -67 10 -96 11 -25 16 -56 13 -94 l-3
-57 65 7 c36 3 67 10 68 15 2 5 7 7 12 4 13 -8 37 37 54 105 12 46 28 77 59
114 55 65 73 122 52 162 -10 20 -14 61 -14 140 0 92 3 117 19 145 86 149 87
186 6 268 -29 31 -59 72 -65 91 -6 19 -27 84 -46 145 -37 114 -41 140 -26 150
5 3 15 22 22 43 6 20 16 43 22 50 6 8 12 23 14 35 7 41 15 267 11 307 -4 50 3
170 11 170 5 0 30 -12 57 -28 27 -15 63 -31 79 -37 24 -8 32 -18 40 -53 6 -24
17 -48 25 -53 8 -5 51 -9 95 -7 l80 3 3 -55 c4 -58 -4 -89 -48 -205 -38 -99
-46 -179 -22 -230 11 -22 25 -65 31 -95 7 -30 19 -84 27 -120 8 -36 14 -68 14
-72 0 -17 -77 -58 -108 -58 -37 0 -82 -37 -82 -68 0 -10 9 -29 19 -41 24 -28
49 -123 33 -129 -26 -8 -62 -45 -62 -62 0 -30 24 -36 110 -29 98 9 172 41 180
79 7 29 45 38 72 17 17 -13 54 -70 64 -98 8 -22 119 -72 157 -71 56 1 76 54
78 206 1 77 -2 101 -14 114 -14 14 -12 17 25 35 l40 20 -4 78 c-5 85 -21 120
-65 141 -39 18 -40 53 -5 124 54 108 64 174 26 174 -18 0 -18 -14 1 -30 12
-10 13 -16 4 -27 -10 -11 -14 -11 -29 2 -9 8 -35 15 -58 15 -50 0 -55 17 -12
42 31 17 43 62 19 70 -17 6 -1 46 20 53 25 7 56 82 42 99 -31 38 53 204 104
206 14 0 125 81 144 103 7 9 11 24 7 32 -3 9 -1 24 5 33 14 22 -12 158 -29
155 -6 -2 -14 7 -18 20 -18 62 -35 85 -68 90 -19 3 -54 15 -79 26 -25 12 -49
21 -53 21 -4 0 -22 15 -39 33 -74 76 -166 127 -232 127 -12 0 -24 4 -28 9 -3
5 -19 12 -35 16 -17 4 -30 13 -30 21 0 11 11 12 48 8 71 -10 228 -63 248 -85
9 -10 27 -19 38 -19 12 0 27 -9 34 -20 8 -13 23 -20 42 -20 33 0 38 14 15 44
-20 26 -19 45 6 101 23 52 23 49 -1 275 -11 100 -11 124 3 185 10 41 12 72 7
75 -16 10 -17 80 -2 80 5 0 14 -12 21 -27 9 -20 15 -23 24 -14 9 9 9 16 -1 32
-11 17 -11 25 3 46 10 14 26 28 36 30 10 3 19 10 20 17 3 60 -1 146 -9 166 -5
14 -7 30 -5 36 2 6 -3 17 -12 24 -20 17 -19 67 4 132 10 29 23 76 29 103 11
53 8 459 -4 498 -3 12 -17 33 -29 47 -36 39 -121 193 -133 242 -6 24 -23 65
-37 91 -14 27 -25 56 -25 65 0 9 -9 31 -20 47 -11 17 -20 38 -20 49 0 10 -15
35 -33 55 -20 23 -41 64 -56 111 -37 118 -61 172 -90 201 -14 15 -32 34 -39
43 -7 9 -26 16 -43 16 -40 0 -47 24 -20 61 13 17 20 37 17 46 -4 9 -1 22 5 29
11 14 -10 41 -57 74 -11 8 -27 28 -35 45 -10 21 -24 32 -51 38 -21 5 -38 15
-38 22 0 7 -15 17 -32 20 -39 9 -90 33 -101 49 -6 8 -10 8 -13 0 -7 -16 -44
-5 -44 12 0 7 -13 20 -30 29 -16 9 -30 19 -30 24 0 4 -12 13 -26 20 -19 8 -25
17 -21 31 3 13 -15 50 -54 109 -32 49 -59 96 -59 105 0 33 -61 136 -81 136
-10 0 -62 52 -136 133 -28 31 -54 57 -58 57 -10 0 -35 28 -35 39 0 6 -4 11 -9
11 -5 0 -13 12 -19 28 -11 32 -113 98 -137 88 -19 -7 -79 22 -124 59 -40 34
-147 56 -302 62 -98 4 -129 1 -191 -16 -82 -23 -193 -27 -260 -10 -35 9 -59 8
-128 -6 -61 -13 -122 -17 -216 -16 -113 2 -142 -1 -200 -20 -64 -21 -86 -22
-324 -21 -236 1 -441 15 -465 32 -23 17 -85 30 -148 32 -50 1 -75 7 -93 20
-13 11 -28 16 -34 13 -5 -3 -10 -2 -10 3 0 31 -116 52 -168 32z m1773 -100 c3
-5 1 -10 -4 -10 -6 0 -11 5 -11 10 0 6 2 10 4 10 3 0 8 -4 11 -10z m339 -151
c-6 -11 -24 -2 -24 11 0 5 7 7 15 4 8 -4 12 -10 9 -15z m416 -66 c67 -18 81
-35 23 -26 -55 7 -103 23 -103 34 0 13 11 11 80 -8z m165 -52 c37 -25 85 -83
85 -102 0 -21 -28 -4 -60 36 -23 29 -48 48 -72 55 -28 8 -38 16 -38 31 0 26
28 19 85 -20z m-1470 -115 c72 -3 141 -8 155 -10 14 -3 36 -8 50 -11 21 -4 91
-10 250 -20 19 -1 46 -6 60 -12 14 -6 51 -19 83 -28 31 -10 62 -24 68 -32 6
-7 16 -13 21 -13 6 0 39 -20 75 -45 35 -25 67 -45 70 -45 3 0 21 -13 40 -30
18 -16 38 -30 44 -30 12 0 135 -124 157 -159 9 -14 28 -42 43 -61 15 -20 35
-60 45 -90 9 -30 20 -59 24 -65 16 -22 20 -95 10 -200 -13 -138 -13 -131 0
-185 6 -25 15 -65 19 -89 5 -23 12 -46 18 -50 5 -3 19 -20 31 -38 28 -40 57
-50 81 -29 24 21 34 20 64 -8 l25 -23 6 29 c9 45 30 29 38 -29 8 -51 82 -205
123 -255 27 -32 59 -111 53 -129 -2 -7 -23 14 -45 46 -63 92 -172 185 -216
185 -14 0 -48 -15 -74 -32 -56 -38 -82 -40 -238 -14 -55 9 -135 19 -178 23
-42 3 -80 9 -82 13 -4 7 -30 0 -107 -26 -10 -4 -18 -10 -18 -15 0 -5 -4 -9
-10 -9 -5 0 -10 7 -10 16 0 14 -8 15 -57 9 -73 -9 -94 -17 -148 -58 -47 -37
-145 -148 -145 -166 0 -6 -11 -18 -25 -27 -14 -9 -25 -23 -25 -31 0 -9 -8 -30
-19 -47 -10 -17 -22 -53 -26 -81 -4 -31 -14 -54 -26 -63 -10 -7 -19 -24 -19
-37 0 -14 -7 -26 -18 -29 -10 -4 -28 -23 -40 -44 -11 -20 -41 -56 -65 -80 -40
-38 -45 -49 -51 -100 -6 -51 -17 -99 -33 -142 -8 -22 -3 -124 9 -189 6 -31 12
-78 14 -106 2 -27 3 -52 4 -55 0 -3 20 -14 45 -25 25 -11 45 -23 45 -27 0 -16
27 -7 48 15 15 16 22 37 23 70 2 47 14 58 37 35 16 -16 162 -27 162 -12 0 15
-63 84 -77 84 -6 0 -16 14 -23 30 -7 17 -16 30 -21 30 -14 0 -10 36 5 49 8 7
17 30 21 52 5 30 11 39 27 39 18 0 18 -1 4 -16 -31 -31 -11 -34 24 -4 13 11
27 20 32 20 6 0 38 25 73 55 36 32 72 55 85 55 12 0 33 10 45 23 42 40 53 46
107 56 54 9 122 32 134 44 4 4 2 13 -5 20 -18 23 8 36 97 49 99 15 242 -7 292
-44 28 -20 30 -26 25 -60 -7 -37 -6 -38 25 -38 23 0 42 -10 66 -34 18 -18 36
-31 39 -28 3 3 5 0 5 -7 0 -7 7 -11 15 -8 8 4 17 2 21 -4 11 -19 -4 -21 -34
-5 -16 8 -32 13 -35 10 -9 -10 -109 19 -114 33 -3 6 -11 9 -18 6 -8 -2 -28 2
-46 11 -27 13 -63 15 -236 11 -206 -4 -293 -18 -334 -52 -8 -7 -19 -13 -22
-13 -13 0 -152 -101 -193 -139 -61 -57 -68 -143 -10 -111 21 11 31 11 53 0 16
-7 23 -15 16 -17 -7 -3 -13 -9 -13 -15 0 -6 11 -3 25 6 28 19 112 21 149 5 19
-9 33 -8 64 4 35 14 45 14 85 2 54 -16 162 -33 261 -41 69 -5 69 -5 101 31 38
41 70 105 80 158 4 20 12 37 17 37 20 0 88 -56 105 -87 17 -32 17 -33 -7 -59
-43 -46 -135 -81 -251 -94 -57 -7 -115 -17 -129 -23 -26 -11 -36 -14 -58 -16
-7 0 -10 -6 -6 -12 5 -9 -1 -10 -22 -5 -16 4 -76 14 -134 23 -58 9 -108 21
-111 26 -4 5 -17 7 -30 4 -13 -4 -42 2 -68 14 -42 18 -81 18 -81 -1 0 -5 16
-26 36 -47 20 -21 37 -42 38 -48 4 -28 42 -55 76 -55 19 0 64 -9 98 -20 35
-11 89 -20 119 -20 52 0 112 -12 158 -30 30 -13 90 -21 190 -27 77 -4 95 -2
133 17 24 12 75 26 113 31 83 10 89 13 89 43 0 13 7 29 15 36 8 7 15 21 15 31
0 31 37 43 84 28 23 -7 46 -14 51 -14 6 -1 20 -6 31 -13 27 -14 70 -146 84
-253 5 -42 14 -87 19 -100 9 -21 41 -177 41 -200 0 -13 -16 -11 -32 4 -7 6
-26 13 -43 14 -16 1 -36 5 -44 8 -14 5 -14 7 -1 15 12 8 10 10 -8 10 -15 0
-26 -7 -29 -19 -3 -11 -18 -24 -34 -30 -16 -5 -29 -16 -29 -24 0 -8 -9 -22
-21 -33 -14 -13 -19 -27 -16 -47 2 -15 0 -30 -5 -33 -4 -3 -8 -14 -8 -25 0
-10 -5 -19 -11 -19 -5 0 -9 -8 -8 -17 1 -10 0 -20 -1 -23 -1 -3 -4 -18 -6 -34
-3 -16 -12 -38 -20 -50 -8 -11 -14 -35 -14 -52 0 -19 -6 -34 -15 -38 -8 -3
-18 -24 -21 -46 -4 -22 -10 -43 -15 -46 -5 -3 -13 -23 -19 -45 -9 -31 -18 -44
-44 -54 -17 -7 -38 -24 -45 -37 -13 -24 -65 -62 -100 -73 -12 -3 -21 -13 -21
-21 0 -13 -5 -16 -40 -18 -8 -1 -20 -11 -26 -24 -6 -13 -15 -24 -20 -25 -5 -1
-8 -8 -8 -14 1 -7 -5 -13 -13 -13 -8 0 -13 -6 -10 -13 2 -6 1 -45 -2 -85 -4
-40 -3 -76 1 -78 4 -3 8 -13 8 -24 0 -10 8 -21 17 -24 14 -6 15 -9 4 -15 -10
-7 -11 -13 -1 -31 7 -12 10 -36 7 -54 -2 -17 0 -39 5 -49 12 -24 -17 -61 -39
-49 -19 11 -113 93 -194 170 -54 51 -71 62 -100 62 -22 0 -41 -7 -51 -19 -13
-15 -25 -18 -64 -13 -27 2 -50 9 -52 13 -9 22 -22 6 -22 -26 0 -29 -4 -35 -21
-35 -14 0 -24 10 -32 30 -7 18 -17 28 -25 25 -7 -3 -21 9 -32 29 -14 22 -33
37 -61 46 -29 10 -48 25 -64 51 -16 25 -33 38 -55 43 -52 10 -70 7 -77 -11 -4
-10 -19 -33 -35 -51 -30 -35 -33 -48 -19 -84 6 -16 23 -29 53 -38 23 -7 65
-24 92 -37 28 -13 60 -23 72 -23 30 0 114 -37 140 -61 12 -11 34 -21 50 -23
17 -2 32 -11 37 -24 5 -11 19 -23 31 -27 22 -6 79 -78 91 -114 4 -14 1 -23 -9
-27 -9 -3 -16 -13 -16 -21 0 -13 -14 -15 -90 -11 -76 5 -97 10 -131 32 -22 15
-64 31 -92 36 -61 10 -89 20 -99 34 -8 12 -126 36 -205 41 -36 3 -55 0 -63
-10 -9 -11 -9 -15 -1 -15 6 0 11 -9 11 -20 0 -30 -45 -26 -76 7 -25 27 -26 27
-40 8 -8 -10 -14 -22 -14 -27 0 -16 -30 -7 -40 12 -6 11 -19 20 -28 20 -10 0
-25 -9 -35 -20 -9 -11 -22 -20 -29 -20 -9 0 -8 3 2 10 21 13 -1 33 -31 28 -16
-2 -24 -10 -24 -23 0 -13 -6 -19 -15 -17 -8 2 -46 4 -85 4 -38 0 -76 5 -83 10
-9 8 -20 8 -38 -1 -14 -6 -55 -11 -92 -11 -98 -1 -251 -17 -265 -29 -7 -5 -44
-15 -82 -22 -39 -6 -89 -20 -113 -31 -54 -25 -127 -18 -170 18 -31 26 -34 64
-6 64 8 0 24 11 36 25 12 14 27 25 33 25 6 0 18 9 28 20 9 11 27 20 39 20 13
0 36 7 52 15 15 8 39 15 53 15 13 0 22 4 19 8 -3 5 4 19 16 32 16 17 18 25 10
28 -19 6 -52 44 -52 59 0 18 -19 16 -27 -2 -5 -15 -53 -45 -71 -45 -4 0 -19
10 -31 21 -13 12 -42 26 -64 31 -23 5 -52 18 -64 30 -12 11 -26 17 -31 14 -6
-3 -12 -1 -14 5 -2 7 -28 -12 -57 -40 -41 -40 -59 -51 -75 -47 -12 3 -27 6
-35 6 -7 0 -11 6 -8 15 8 18 -11 30 -42 26 -19 -2 -22 1 -18 14 4 9 3 14 -3
10 -6 -3 -10 -2 -10 4 0 5 5 13 10 16 6 3 10 12 10 18 0 7 -4 6 -10 -3 -8 -12
-10 -11 -10 7 0 13 3 22 8 22 48 -8 51 -2 83 126 6 22 18 49 28 60 21 23 36
85 21 85 -6 0 -10 6 -10 13 0 8 -9 22 -19 31 -11 10 -21 28 -23 40 -2 12 -18
29 -40 41 -28 15 -45 35 -64 75 -14 30 -41 78 -59 105 -29 45 -36 64 -50 145
-2 13 -11 29 -19 35 -9 7 -13 20 -10 32 6 20 -35 73 -56 73 -6 0 -10 7 -10 15
0 8 -6 15 -13 15 -8 0 -19 11 -25 25 -12 27 -48 45 -88 45 -17 0 -24 6 -24 19
0 11 -4 23 -10 26 -5 3 -10 21 -10 40 0 44 -19 137 -31 150 -18 19 -10 72 14
88 19 13 20 18 10 36 -23 38 -8 48 77 49 44 0 82 -4 85 -9 3 -4 24 -13 46 -19
40 -11 54 -9 152 26 20 8 55 14 76 14 21 0 64 9 96 20 32 11 72 20 88 20 17 0
38 6 46 13 9 8 43 22 76 31 33 10 70 22 83 27 52 21 72 -6 31 -42 -11 -10 -18
-23 -14 -28 11 -19 49 -12 77 14 24 22 160 75 192 75 7 0 29 -9 50 -20 22 -10
42 -17 47 -15 15 10 79 -29 73 -45 -3 -8 -2 -11 2 -8 4 4 14 3 24 -2 13 -7 22
-4 35 10 10 11 24 20 32 20 8 0 11 5 7 11 -7 12 10 78 31 119 7 14 16 45 20
70 4 25 16 61 26 80 30 55 19 269 -16 310 -7 8 -16 35 -20 60 -9 58 -27 100
-42 100 -13 0 -18 18 -15 51 1 10 -9 19 -23 23 -15 4 -27 16 -31 31 -3 14 -12
25 -20 25 -8 0 -14 6 -14 14 0 8 -6 21 -13 28 -14 13 -87 158 -87 172 0 4 -25
33 -56 64 -51 52 -69 65 -144 104 -14 7 -31 21 -38 30 -7 10 -22 18 -32 18
-11 0 -55 12 -97 28 -74 26 -86 27 -238 25 -451 -6 -477 -8 -481 -31 -7 -32
-19 -52 -35 -57 -10 -3 -21 -15 -24 -25 -3 -11 -19 -29 -36 -40 -36 -26 -38
-50 -4 -50 33 0 95 -40 95 -62 0 -19 -38 -24 -98 -12 -27 5 -30 10 -35 53 -4
38 0 57 26 111 18 36 35 67 40 68 15 7 6 30 -14 35 -20 5 -21 10 -14 64 7 60
58 161 107 213 49 52 83 115 92 170 4 19 8 49 11 65 3 17 7 35 9 41 3 6 -2 24
-11 40 -18 34 -19 79 -2 111 9 17 9 29 2 46 -9 20 -7 25 18 39 16 10 27 23 24
30 -7 19 66 95 99 102 16 4 38 19 50 34 34 43 66 92 66 101 0 5 7 14 15 21 8
7 12 17 8 23 -4 6 -1 7 6 2 8 -4 21 1 32 14 15 16 24 19 38 11 18 -9 31 -4 31
12 0 5 -4 6 -10 3 -5 -3 -10 1 -10 10 0 11 6 14 24 9 29 -7 41 9 26 36 -9 16
-8 20 5 20 13 0 16 8 13 32 -2 25 1 34 15 36 11 2 27 11 37 19 10 9 33 17 52
18 18 1 47 7 63 13 17 6 89 23 160 37 72 15 156 33 187 41 33 8 149 16 270 20
117 3 214 7 215 8 1 1 46 -2 100 -6 54 -4 157 -10 228 -12z m1575 -297 c0 -5
8 -17 19 -28 10 -10 43 -49 74 -86 31 -37 65 -74 76 -82 13 -8 21 -25 21 -42
0 -15 7 -36 15 -47 18 -24 19 -34 1 -34 -8 0 -17 8 -20 18 -4 10 -29 41 -56
68 -27 27 -50 53 -50 57 0 10 -13 26 -77 92 -58 60 -57 58 -43 85 10 19 40 18
40 -1z m-354 -141 c21 -24 74 -120 74 -134 0 -12 -59 59 -60 72 0 6 -9 19 -21
30 -12 10 -28 32 -36 47 -13 27 -13 28 4 19 10 -6 27 -21 39 -34z m659 -298
c7 -22 6 -23 -9 -11 -9 7 -16 23 -16 34 0 26 15 12 25 -23z m-40 -80 c3 -5 1
-10 -4 -10 -6 0 -11 5 -11 10 0 6 2 10 4 10 3 0 8 -4 11 -10z m98 -10 c9 -11
23 -20 31 -20 7 0 19 -7 26 -15 7 -8 27 -15 44 -15 48 0 68 -20 76 -76 10 -66
3 -73 -28 -25 -26 41 -42 45 -42 11 0 -10 -4 -22 -10 -25 -5 -3 -10 2 -10 12
0 11 -5 24 -11 30 -6 6 -17 22 -23 35 -6 12 -16 23 -22 23 -5 0 -25 12 -43 26
-23 18 -32 32 -28 43 8 21 19 20 40 -4z m107 -208 c0 -13 -12 -22 -22 -16 -10
6 -1 24 13 24 5 0 9 -4 9 -8z m23 -105 c-7 -11 -23 12 -23 33 1 12 4 11 15 -4
8 -10 12 -23 8 -29z m-594 12 c36 -13 39 -37 6 -49 -16 -6 -23 -1 -37 26 -19
37 -16 39 31 23z m497 -56 c-10 -10 -19 5 -10 18 6 11 8 11 12 0 2 -7 1 -15
-2 -18z m72 4 c6 3 12 -2 12 -10 0 -7 9 -22 19 -31 11 -10 22 -28 25 -42 4
-13 11 -24 17 -24 7 0 9 17 4 51 -5 36 -4 50 4 45 17 -11 30 -74 21 -106 -6
-21 -3 -43 11 -81 20 -51 19 -86 -1 -74 -5 3 -10 15 -10 25 0 29 -53 133 -92
181 -19 24 -39 55 -42 69 -6 22 -5 23 6 9 7 -9 19 -14 26 -12z m145 -354 c-3
-48 -21 -194 -31 -253 -5 -29 -10 -40 -15 -32 -8 12 6 158 24 239 5 23 9 54 9
68 0 14 4 24 8 21 5 -3 7 -22 5 -43z m-4009 -96 c35 -16 37 -20 24 -33 -12
-12 -19 -13 -41 -3 -15 7 -27 20 -27 31 0 10 -7 21 -15 24 -8 4 -15 14 -15 23
1 13 3 13 18 -4 9 -11 35 -28 56 -38z m-80 -106 c7 -11 87 -23 171 -26 33 -1
74 -9 92 -18 18 -10 51 -17 74 -17 88 0 274 -76 319 -130 3 -4 13 -9 23 -13
10 -4 15 -11 12 -17 -3 -6 1 -17 9 -26 26 -25 20 -51 -13 -57 -31 -6 -76 0
-221 30 -83 17 -125 18 -420 10 -55 -2 -65 1 -68 16 -2 9 8 31 22 48 14 17 26
36 26 42 0 7 16 23 35 37 19 14 35 28 35 33 0 4 -21 7 -46 7 -53 0 -74 16 -74
59 0 30 13 41 24 22z m3589 -84 c-10 -16 -23 6 -22 36 l1 32 13 -30 c7 -16 11
-33 8 -38z m-471 -48 c9 -5 35 -9 58 -9 27 0 40 -4 39 -12 -1 -7 3 -26 10 -42
6 -16 8 -33 3 -40 -4 -6 -7 -21 -6 -34 1 -14 -7 -29 -20 -37 -18 -11 -42 -10
-156 7 -141 20 -338 20 -408 -1 -29 -9 -34 -7 -48 14 -14 22 -14 26 5 52 19
26 36 36 141 88 57 29 333 38 382 14z m917 -54 c-6 -28 -7 -71 -4 -97 5 -46
-6 -66 -19 -32 -9 24 -7 100 3 126 5 13 12 32 15 42 12 35 14 11 5 -39z
m-3604 -132 c22 -8 58 -21 80 -28 22 -7 50 -16 63 -20 12 -4 22 -11 22 -14 0
-10 95 -71 110 -71 14 0 119 -58 137 -75 6 -7 26 -18 45 -26 18 -7 50 -30 71
-51 21 -21 42 -38 46 -38 13 0 33 -46 29 -69 -3 -23 -3 -23 -39 6 -20 15 -45
33 -55 40 -11 7 -55 36 -99 65 -115 76 -166 96 -275 108 -100 10 -295 1 -401
-20 -30 -6 -64 -10 -75 -9 -43 4 -74 -2 -71 -13 1 -7 -9 -14 -23 -16 -14 -2
-36 -11 -50 -21 -14 -9 -41 -24 -60 -33 -19 -9 -64 -31 -99 -48 -35 -17 -66
-28 -68 -26 -5 4 57 77 92 109 65 59 85 70 85 47 0 -18 30 -11 54 13 38 36 63
55 96 72 28 14 35 26 31 49 -3 16 30 44 61 50 21 4 28 10 25 20 -4 11 3 16 26
18 62 7 202 -5 242 -19z m3599 -99 c3 -9 6 -23 6 -32 0 -8 7 -24 17 -34 9 -10
13 -21 10 -24 -12 -12 -57 49 -57 77 0 31 14 39 24 13z m-3354 -204 c22 -12
34 -24 32 -35 -3 -13 2 -15 18 -10 13 4 31 0 45 -9 13 -9 31 -16 39 -16 7 0
16 -7 20 -15 4 -11 12 -13 28 -7 26 10 68 2 71 -13 1 -6 -35 -13 -84 -16 -82
-6 -149 -25 -149 -42 0 -9 200 -2 280 9 24 4 51 14 58 23 12 14 13 14 6 -4 -4
-11 -9 -33 -12 -50 -3 -16 -17 -45 -31 -63 -27 -34 -119 -107 -135 -107 -5 0
-11 13 -13 29 -3 21 3 36 23 57 14 15 23 32 20 37 -11 19 -75 24 -104 8 -23
-13 -85 -37 -164 -63 -12 -3 -18 0 -18 10 0 21 -102 31 -113 11 -4 -8 -15 -14
-23 -14 -8 0 -13 3 -11 8 3 4 -14 8 -36 9 -23 0 -60 5 -81 10 -54 11 -31 27
63 42 41 6 81 15 89 20 25 14 52 101 52 168 0 40 4 63 13 66 13 4 58 -12 117
-43z m-287 28 c11 -9 14 -18 8 -27 -8 -12 -12 -12 -25 -2 -17 14 -22 41 -8 41
5 0 16 -6 25 -12z m2387 -3 c-13 -16 -55 -20 -64 -6 -9 14 5 21 42 21 29 0 33
-2 22 -15z m-2467 -2 c7 -12 -11 -53 -23 -53 -14 0 -24 26 -16 45 6 16 32 21
39 8z m2314 -50 c-3 -33 1 -62 14 -94 16 -41 16 -49 4 -59 -12 -10 -24 -8 -57
8 -31 14 -48 17 -61 10 -12 -6 -34 -4 -69 8 -28 9 -74 17 -102 18 -38 1 -51 5
-51 16 0 10 10 15 32 15 20 0 38 8 51 23 11 12 24 22 30 22 6 0 12 -10 14 -22
4 -32 32 -29 38 4 6 32 47 66 89 74 17 4 34 11 37 15 3 5 12 9 21 9 13 0 15
-9 10 -47z m158 -1 c0 -18 -20 -15 -23 4 -3 10 1 15 10 12 7 -3 13 -10 13 -16z
m1442 -4 c-3 -8 -6 -5 -6 6 -1 11 2 17 5 13 3 -3 4 -12 1 -19z m-3825 -47
c-13 -40 -31 -55 -57 -45 -20 8 -19 33 0 41 9 3 23 19 31 35 23 44 41 22 26
-31z m2563 11 c-3 -17 -13 -33 -21 -36 -16 -6 -19 9 -4 19 6 3 10 20 10 38 0
22 3 28 11 20 6 -6 8 -24 4 -41z m-2868 26 c6 -7 15 -28 22 -47 6 -19 32 -58
57 -88 26 -30 45 -56 42 -58 -9 -9 -95 28 -139 61 -58 42 -71 85 -37 121 24
26 41 29 55 11z m2823 -62 c0 -3 -4 -16 -10 -31 -9 -24 -14 -26 -62 -23 -38 2
-54 7 -56 19 -2 11 11 18 50 26 68 13 78 14 78 9z m-380 -86 c0 -5 -2 -10 -4
-10 -3 0 -8 5 -11 10 -3 6 -1 10 4 10 6 0 11 -4 11 -10z m-2736 -31 c-7 -11
-34 -12 -34 -1 0 14 11 21 26 15 8 -3 11 -9 8 -14z m4537 -89 c4 0 11 -17 14
-37 3 -21 11 -65 17 -99 9 -52 8 -67 -7 -107 l-17 -46 27 -48 c18 -33 30 -72
36 -123 5 -41 19 -103 31 -138 24 -68 20 -97 -24 -169 -23 -38 -34 -41 -41
-13 -3 11 -12 20 -21 20 -9 0 -16 6 -16 14 0 7 -12 30 -26 51 -22 33 -25 46
-21 99 2 34 12 102 21 151 30 165 21 253 -45 433 -10 30 -19 63 -19 75 0 18 6
15 42 -21 22 -23 45 -42 49 -42z m-4476 28 c34 -15 32 -22 -13 -46 -47 -24
-72 -14 -72 28 0 27 3 30 30 30 16 0 41 -5 55 -12z m2929 -34 c9 -3 16 -12 16
-20 0 -11 -5 -11 -25 -2 -32 15 -24 35 9 22z m196 -34 c11 -7 -5 -10 -52 -10
-37 0 -70 5 -73 10 -8 13 105 13 125 0z m-2140 -20 c0 -5 -4 -10 -10 -10 -5 0
-10 5 -10 10 0 6 5 10 10 10 6 0 10 -4 10 -10z m-3027 -128 c-18 -51 -76 -72
-86 -31 -8 30 0 44 31 56 34 12 64 -1 55 -25z m1014 -279 c-3 -10 -5 -4 -5 12
0 17 2 24 5 18 2 -7 2 -21 0 -30z m768 -34 c33 -22 43 -35 36 -42 -7 -7 -16
-6 -29 6 -23 21 -32 21 -32 2 0 -19 -9 -19 -32 2 -25 22 -23 63 3 63 4 0 29
-14 54 -31z m-77 -47 c2 -12 -1 -22 -7 -22 -13 0 -32 35 -24 44 12 12 28 0 31
-22z m70 -24 c-6 -18 -28 -21 -28 -4 0 9 7 16 16 16 9 0 14 -5 12 -12z m4542
-162 c0 -8 7 -19 15 -26 8 -7 15 -21 15 -32 0 -18 -1 -18 -19 -1 -25 25 -43
61 -36 73 8 13 25 3 25 -14z m-49 -66 c21 -12 25 -35 8 -45 -11 -8 -38 22 -39
43 0 15 6 15 31 2z m-174 -36 c-3 -3 -12 -4 -19 -1 -8 3 -5 6 6 6 11 1 17 -2
13 -5z m293 -24 c0 -5 -2 -10 -4 -10 -3 0 -8 5 -11 10 -3 6 -1 10 4 10 6 0 11
-4 11 -10z m-4998 -137 c10 -9 25 -40 34 -70 11 -36 24 -59 45 -73 30 -22 41
-71 19 -85 -5 -3 -10 -16 -10 -28 0 -23 -55 -83 -64 -69 -6 10 -54 196 -67
260 -6 28 -5 51 1 63 13 23 18 24 42 2z m-92 -440 c0 -12 -4 -25 -10 -28 -6
-4 -10 11 -10 37 0 31 3 39 10 28 5 -8 10 -25 10 -37z m-540 -159 c0 -30 -7
-69 -16 -85 -8 -17 -15 -56 -15 -90 0 -33 -5 -57 -10 -54 -5 4 -9 17 -9 30 0
13 -6 25 -12 27 -14 5 -28 191 -16 212 4 6 23 12 42 13 l36 1 0 -54z m499 -36
c-1 -107 -17 -95 -18 13 -1 57 3 79 16 79 2 0 3 -42 2 -92z m3061 42 c0 -13
-20 -13 -40 0 -12 8 -9 10 13 10 15 0 27 -4 27 -10z m530 -45 c0 -8 -2 -15 -4
-15 -2 0 -6 7 -10 15 -3 8 -1 15 4 15 6 0 10 -7 10 -15z m-2500 -29 c0 -11
-19 -15 -25 -6 -3 5 1 10 9 10 9 0 16 -2 16 -4z m-685 -50 c38 -16 38 -17 29
-40 -11 -29 -38 -15 -63 32 -14 26 -11 27 34 8z m-380 -36 c14 0 30 -28 34
-60 0 -5 8 -10 16 -10 24 0 31 -31 11 -46 -15 -11 -16 -13 -2 -21 8 -5 22 -27
30 -51 l15 -42 -36 -15 c-19 -8 -46 -15 -59 -15 -30 0 -54 -44 -54 -102 0 -24
-5 -60 -11 -81 -6 -22 -6 -43 -1 -53 9 -16 -6 -58 -42 -124 -78 -141 -90 -174
-89 -245 1 -38 5 -84 9 -102 5 -26 -3 -51 -41 -130 -33 -69 -50 -118 -56 -164
-4 -37 -15 -82 -24 -101 -17 -35 -10 -32 -195 -87 -36 -11 -90 -31 -120 -45
-30 -14 -75 -29 -98 -35 -38 -8 -46 -7 -63 10 -45 45 -14 112 71 154 121 60
169 113 211 227 20 54 23 80 21 180 -1 109 0 119 23 153 14 20 25 39 25 44 0
4 21 31 48 60 43 47 52 52 100 58 34 4 56 12 61 22 9 17 26 102 36 182 4 32
21 69 56 122 38 59 54 95 67 153 12 57 21 78 34 82 19 5 24 27 8 37 -5 3 -10
21 -9 38 0 18 3 26 6 20 2 -7 11 -13 18 -13z m-525 -100 c0 -5 -4 -10 -10 -10
-5 0 -10 5 -10 10 0 6 5 10 10 10 6 0 10 -4 10 -10z m4513 -4 c8 -9 14 -39 16
-78 1 -51 5 -66 23 -78 52 -37 80 -71 75 -90 -3 -12 2 -28 11 -37 26 -26 22
-113 -6 -141 -12 -12 -24 -33 -28 -47 -3 -14 -11 -25 -18 -25 -6 0 -3 -5 7
-11 9 -5 17 -17 17 -25 0 -8 11 -19 25 -24 25 -9 33 -39 19 -73 -5 -15 -49
-12 -71 6 -9 6 -13 6 -13 -2 0 -6 -5 -11 -12 -11 -9 0 -9 3 0 12 13 13 17 68
4 68 -4 0 -13 21 -19 48 -6 26 -16 67 -23 92 -8 33 -8 61 -1 106 16 89 14 130
-8 151 -30 30 -52 150 -30 164 18 11 15 11 32 -5z m-2863 -31 c0 -8 -4 -15
-10 -15 -5 0 -7 7 -4 15 4 8 8 15 10 15 2 0 4 -7 4 -15z m-48 -76 c1 -16 3
-41 5 -56 19 -138 8 -179 -37 -138 -14 12 -23 13 -45 5 -37 -14 -48 -2 -47 52
0 24 0 73 1 110 0 56 3 68 22 81 19 14 25 14 60 -5 31 -16 39 -26 41 -49z
m-1597 41 c14 -15 15 -20 4 -20 -10 0 -11 -2 -2 -8 17 -11 -1 -89 -35 -153
-16 -30 -46 -97 -67 -149 -41 -102 -52 -120 -68 -120 -21 0 12 309 41 376 37
88 88 117 127 74z m3525 -180 c103 -13 161 -29 177 -47 9 -11 8 -24 -1 -56
-10 -37 -16 -42 -44 -45 -27 -3 -34 -8 -39 -32 -3 -16 -23 -45 -46 -65 -33
-30 -53 -39 -98 -45 -31 -5 -69 -16 -84 -26 -23 -15 -32 -16 -75 -5 -39 10
-53 10 -72 0 -34 -19 -313 -14 -342 6 -12 9 -43 15 -77 15 -60 0 -114 14 -140
37 -9 8 -34 19 -55 24 -55 15 -104 55 -104 84 0 13 -11 36 -24 52 -21 25 -26
26 -50 15 -27 -12 -106 -6 -106 8 0 4 27 10 59 13 35 3 83 16 114 32 54 26 60
26 323 34 409 12 591 12 684 1z m610 -129 c0 -21 -23 -68 -45 -91 -13 -14 -35
-61 -51 -105 -15 -44 -34 -86 -42 -92 -23 -19 -27 -7 -8 21 9 14 25 51 37 83
30 83 48 123 73 160 21 32 36 42 36 24z m-2134 -53 c16 -24 44 -58 62 -77 31
-33 46 -81 20 -65 -25 16 -74 80 -100 131 -33 64 -22 70 18 11z m-59 -91 c22
-28 47 -67 57 -84 15 -30 30 -49 105 -132 13 -14 48 -56 78 -93 29 -38 57 -68
62 -68 4 0 16 -18 26 -40 10 -22 21 -40 26 -40 4 0 10 -18 14 -40 4 -22 11
-38 16 -35 4 3 15 -10 23 -28 8 -19 19 -38 25 -41 6 -4 11 -16 11 -27 0 -10 7
-19 15 -19 29 0 75 -30 81 -54 6 -26 75 -62 112 -57 12 1 22 -2 22 -7 0 -6 13
-13 29 -17 16 -3 35 -13 42 -21 6 -8 22 -14 35 -14 13 0 47 -8 76 -19 115 -41
268 -53 533 -41 151 6 201 19 230 56 10 13 73 25 145 29 44 2 72 14 64 27 -9
14 15 28 49 28 15 0 27 5 27 11 0 6 5 9 12 7 7 -3 23 7 36 21 16 18 25 22 29
14 2 -7 13 -13 24 -13 15 0 18 -5 15 -22 -3 -13 -10 -50 -17 -83 -6 -33 -17
-70 -25 -82 -8 -12 -14 -31 -14 -41 0 -11 -7 -25 -15 -32 -8 -7 -15 -22 -15
-34 0 -38 -12 -67 -26 -62 -17 6 -74 -16 -74 -29 1 -20 -45 -104 -55 -101 -5
2 -18 7 -27 11 -13 5 -18 2 -18 -9 0 -9 -12 -22 -27 -28 -16 -7 -37 -23 -49
-36 -11 -13 -27 -20 -35 -17 -19 7 -48 -23 -58 -61 -7 -26 -12 -29 -52 -30
-63 -1 -66 -2 -84 -20 -15 -15 -18 -15 -40 6 -17 16 -29 20 -42 15 -10 -5 -37
-14 -61 -20 -34 -10 -44 -9 -53 2 -16 19 -29 16 -70 -11 -30 -20 -36 -30 -32
-50 7 -35 -8 -33 -35 4 -16 21 -31 30 -52 30 -16 0 -35 7 -44 15 -8 8 -26 15
-40 15 -14 0 -35 9 -46 20 -19 19 -22 19 -36 5 -20 -20 -23 -19 -45 9 -29 37
-78 63 -133 71 -49 8 -49 8 -44 -19 4 -22 2 -26 -17 -26 -17 0 -24 8 -31 38
-8 31 -13 37 -34 36 -14 -1 -29 5 -33 12 -4 8 -16 14 -27 14 -10 0 -27 11 -38
25 -12 15 -30 25 -46 25 -17 0 -26 5 -26 16 0 9 -9 18 -20 21 -10 3 -22 14
-25 24 -4 11 -16 24 -28 31 -30 16 -46 40 -90 138 -23 52 -36 94 -32 107 3 15
-1 26 -16 36 -11 8 -20 23 -18 34 3 26 -11 53 -27 53 -9 0 -14 11 -14 28 0 23
-20 64 -39 82 -6 5 -39 64 -75 135 -11 22 -35 56 -53 75 -18 19 -36 51 -39 70
-4 19 -16 47 -26 61 -11 14 -22 45 -25 67 -3 23 -10 42 -14 42 -5 0 -9 5 -9
10 0 6 7 10 15 10 20 0 19 6 -5 30 -24 24 -26 40 -5 40 8 0 15 -9 15 -21 0
-12 4 -18 11 -13 15 9 52 94 45 101 -7 7 13 33 24 33 4 0 25 -24 47 -53z
m2223 33 c0 -5 7 -7 15 -4 11 5 13 2 9 -10 -3 -9 -2 -16 4 -16 6 0 12 6 14 12
3 9 10 8 22 -5 18 -17 16 -55 -4 -102 -5 -11 -17 -42 -26 -70 -16 -44 -84
-125 -104 -125 -4 0 -15 -15 -25 -34 -11 -19 -27 -37 -38 -40 -10 -2 -16 -9
-12 -15 8 -14 -37 -32 -49 -20 -5 5 -4 14 3 22 6 8 9 21 6 29 -3 8 1 21 9 28
9 7 13 17 10 22 -3 5 -1 21 4 36 6 15 13 39 16 54 3 15 15 30 26 33 13 4 20
15 20 31 0 22 20 75 62 162 11 22 38 31 38 12z m-333 -16 c6 -18 -42 -79 -63
-82 -13 -2 -28 -19 -42 -47 -11 -24 -33 -51 -49 -60 -15 -9 -39 -32 -53 -51
-27 -38 -105 -95 -163 -119 -21 -8 -46 -23 -57 -33 -17 -14 -42 -17 -128 -18
-59 -1 -153 -2 -209 -3 -60 -1 -111 3 -123 9 -12 6 -51 11 -88 10 -37 -1 -89
0 -117 2 -46 3 -51 6 -65 36 -13 29 -19 33 -45 29 -26 -4 -33 0 -56 37 -14 22
-32 56 -39 74 -7 17 -16 32 -20 32 -13 0 -72 101 -66 115 7 19 39 19 78 -1 16
-9 40 -13 52 -10 26 6 91 -47 97 -79 6 -27 35 -30 56 -6 18 22 53 29 53 11 0
-5 9 -10 20 -10 19 0 111 -22 143 -35 9 -4 24 -2 32 5 8 6 36 15 62 18 50 6
58 6 138 1 28 -2 86 5 130 14 44 10 105 23 135 28 30 6 69 14 86 20 17 5 49 9
71 9 36 0 46 5 77 41 26 31 40 40 56 36 13 -3 30 3 48 18 27 25 43 27 49 9z
m2090 -120 c8 -22 -10 -155 -22 -155 -16 0 -25 92 -13 134 12 39 25 47 35 21z
m-1297 -89 c0 -13 -4 -14 -20 -5 -11 6 -20 13 -20 15 0 3 9 5 20 5 11 0 20 -7
20 -15z m-4876 -69 c-3 -9 -10 -16 -15 -16 -5 0 -4 9 3 20 14 22 21 20 12 -4z
m3935 -229 c-13 -5 -31 -13 -39 -18 -123 -70 -164 -89 -188 -89 -15 0 -32 -4
-38 -10 -27 -27 -303 -48 -311 -25 -5 17 74 35 154 35 42 0 106 7 142 16 36 8
75 17 86 19 11 2 43 19 70 37 49 33 122 58 139 49 6 -2 -1 -9 -15 -14z m-3002
-63 c-2 -15 3 -45 13 -68 15 -35 17 -71 15 -243 0 -111 -3 -205 -6 -207 -4 -5
-24 37 -101 211 -26 61 -26 158 1 214 35 71 66 119 78 119 3 0 3 -12 0 -26z
m2023 16 c0 -5 -4 -10 -10 -10 -5 0 -10 5 -10 10 0 6 5 10 10 10 6 0 10 -4 10
-10z m260 -70 c0 -5 -5 -10 -11 -10 -5 0 -7 5 -4 10 3 6 8 10 11 10 2 0 4 -4
4 -10z m-1811 -130 c1 -33 20 -82 21 -52 0 7 4 11 9 8 5 -4 7 4 4 16 -4 17 8
8 46 -32 28 -30 51 -61 52 -70 2 -46 29 -150 39 -150 9 0 21 -51 23 -100 2
-34 1 -35 -21 -25 -12 5 -25 20 -28 33 -5 17 -16 24 -45 28 -23 4 -38 11 -36
18 6 17 -22 69 -51 93 -24 21 -26 27 -32 160 -3 76 -4 142 -1 148 7 13 19 -31
20 -75z m18 -32 c-3 -8 -6 -5 -6 6 -1 11 2 17 5 13 3 -3 4 -12 1 -19z m3516
-321 c23 -48 32 -240 16 -321 l-13 -65 -18 40 c-10 23 -18 45 -18 50 0 5 -9
18 -20 29 -11 11 -20 33 -20 49 0 16 -7 37 -17 46 -14 15 -15 25 -5 75 6 34
19 67 31 79 19 19 26 41 22 65 -4 19 28 -16 42 -47z m-3441 -39 c7 -18 -2 -39
-13 -32 -12 7 -12 44 0 44 5 0 11 -6 13 -12z m-792 -93 c0 -15 -46 -32 -57
-21 -10 9 18 36 38 36 11 0 19 -7 19 -15z m4038 -168 c2 -10 -10 -46 -27 -80
-17 -35 -31 -73 -31 -84 0 -11 -9 -31 -19 -45 -11 -13 -16 -30 -12 -36 13 -21
6 -235 -7 -240 -8 -2 -12 -28 -12 -67 0 -35 -5 -67 -10 -70 -6 -3 -15 -26 -21
-50 -6 -25 -17 -50 -25 -56 -8 -6 -14 -29 -14 -51 0 -29 -6 -45 -22 -59 -13
-10 -17 -18 -10 -19 22 0 12 -20 -10 -20 -13 0 -36 -7 -52 -15 -15 -8 -32 -12
-37 -9 -14 8 -4 77 14 105 9 13 19 42 23 64 3 22 12 46 18 54 6 8 13 65 16
127 5 112 13 142 30 114 6 -8 10 -12 10 -9 0 3 11 36 24 73 14 37 26 95 27
129 4 84 9 107 25 107 8 0 14 -4 14 -10 0 -5 5 -10 11 -10 8 0 8 4 0 14 -16
19 4 51 41 67 15 6 27 18 26 28 -3 43 3 72 15 69 6 -3 13 -12 15 -21z m-3398
-223 c0 -8 -4 -12 -10 -9 -5 3 -10 10 -10 16 0 5 5 9 10 9 6 0 10 -7 10 -16z
m-20 -144 l-7 -65 -2 75 c0 44 3 70 8 65 5 -6 6 -38 1 -75z m1424 64 c9 -24 7
-94 -3 -94 -5 0 -11 25 -13 55 -3 54 4 71 16 39z m246 -65 c0 -21 -4 -39 -10
-39 -5 0 -10 21 -10 46 0 27 4 43 10 39 6 -3 10 -24 10 -46z m531 -52 c-8 -8
-11 -7 -11 4 0 9 3 19 7 23 4 4 9 2 11 -4 3 -7 -1 -17 -7 -23z"/>
<path d="M9077 10204 c-4 -4 -4 -10 -2 -14 6 -10 45 0 45 11 0 10 -33 12 -43
3z"/>
<path d="M8368 9683 c7 -3 16 -2 19 1 4 3 -2 6 -13 5 -11 0 -14 -3 -6 -6z"/>
<path d="M8065 9470 c-28 -5 -30 -9 -29 -45 0 -22 10 -60 21 -85 11 -25 26
-67 33 -95 19 -72 38 -100 79 -116 20 -8 40 -15 44 -17 4 -2 6 24 4 58 -3 45
-8 65 -20 72 -11 6 -17 22 -17 48 0 32 -7 47 -35 76 -22 22 -35 46 -35 62 0
39 -11 49 -45 42z"/>
<path d="M7280 9425 c0 -14 5 -25 10 -25 6 0 10 9 10 19 0 11 6 22 13 24 6 3
2 6 -10 6 -18 1 -23 -5 -23 -24z"/>
<path d="M6065 9420 c-3 -5 -1 -10 4 -10 6 0 11 5 11 10 0 6 -2 10 -4 10 -3 0
-8 -4 -11 -10z"/>
<path d="M7362 9321 l-2 -34 -25 23 c-23 21 -28 23 -47 11 -15 -9 -23 -10 -28
-1 -9 15 -60 -8 -60 -27 0 -9 -8 -12 -27 -7 -21 4 -24 3 -14 -5 12 -8 10 -12
-12 -22 -15 -7 -27 -18 -27 -26 0 -7 -4 -13 -9 -13 -11 0 -23 -34 -27 -79 -2
-18 -9 -38 -17 -45 -23 -19 -74 -108 -93 -161 -11 -31 -17 -80 -18 -130 0 -94
25 -163 76 -204 18 -14 39 -33 48 -41 9 -8 55 -35 103 -59 78 -40 88 -48 98
-81 9 -31 8 -42 -6 -64 -10 -14 -21 -26 -24 -26 -4 0 -23 -24 -41 -52 -18 -29
-50 -71 -71 -93 -40 -42 -50 -85 -35 -151 l7 -31 62 9 c34 5 76 16 94 24 17 8
39 14 50 14 10 0 34 16 54 34 30 28 39 47 53 109 9 41 16 78 15 83 -2 5 1 23
5 40 6 25 14 33 39 38 24 5 35 2 44 -10 7 -9 10 -21 7 -25 -2 -5 -7 -43 -9
-86 -3 -43 -8 -95 -11 -115 -8 -53 2 -76 39 -86 39 -11 76 5 101 43 28 43 9
196 -26 207 -8 3 -13 22 -14 48 0 36 5 49 35 80 29 31 46 39 88 45 69 9 92 0
111 -43 11 -25 24 -37 37 -37 15 0 19 -6 17 -25 -1 -14 -7 -26 -12 -28 -6 -2
-10 -10 -10 -18 0 -8 -4 -14 -9 -14 -5 0 -12 -15 -16 -32 -4 -18 -13 -42 -20
-54 -20 -32 -29 -108 -15 -133 9 -17 9 -26 -1 -37 -14 -17 -11 -21 16 -25 61
-9 118 33 164 121 33 63 42 72 63 67 24 -7 23 -2 -12 67 -17 32 -30 65 -30 72
0 15 93 114 107 114 5 0 23 11 39 25 16 14 32 25 36 25 12 0 163 131 183 159
15 22 19 40 17 77 -4 39 -6 44 -15 28 -32 -60 -104 -104 -122 -74 -3 5 -25 14
-48 20 -23 6 -63 20 -89 30 -85 36 -152 22 -227 -46 -35 -31 -54 -39 -119 -51
-109 -20 -118 -19 -160 19 -96 87 -151 101 -268 67 -43 -12 -99 -24 -122 -26
-39 -4 -47 -1 -73 28 -42 47 -63 122 -47 168 7 20 21 42 30 49 10 7 18 23 18
35 0 13 13 38 30 57 16 19 29 40 30 46 0 6 21 29 48 51 57 49 105 138 99 185
l-4 33 -1 -34z"/>
<path d="M8080 8965 c0 -8 4 -15 10 -15 5 0 7 7 4 15 -4 8 -8 15 -10 15 -2 0
-4 -7 -4 -15z"/>
<path d="M8380 8815 c0 -8 5 -15 10 -15 6 0 10 7 10 15 0 8 -4 15 -10 15 -5 0
-10 -7 -10 -15z"/>
<path d="M5782 6475 c0 -16 2 -22 5 -12 2 9 2 23 0 30 -3 6 -5 -1 -5 -18z"/>
<path d="M4185 7050 c-3 -5 1 -10 9 -10 9 0 16 5 16 10 0 6 -4 10 -9 10 -6 0
-13 -4 -16 -10z"/>
<path d="M9445 6260 c-3 -10 0 -31 8 -45 12 -24 15 -25 26 -11 11 13 11 22 1
46 -14 35 -26 38 -35 10z"/>
<path d="M9467 6146 c-10 -25 -8 -384 2 -391 16 -10 24 57 24 215 0 147 -10
218 -26 176z"/>
<path d="M3724 4489 c-3 -5 3 -9 12 -9 9 0 44 -13 78 -30 34 -16 108 -46 166
-65 58 -20 125 -44 150 -55 25 -10 61 -22 80 -26 19 -4 41 -10 50 -14 29 -15
145 -60 154 -60 4 0 38 -26 75 -58 36 -32 77 -63 91 -70 14 -7 36 -19 50 -27
28 -17 82 -19 108 -6 9 5 25 12 35 15 9 3 17 15 17 26 0 11 3 19 8 18 8 -1 31
7 80 28 37 16 54 18 32 4 -10 -6 -5 -9 20 -8 66 2 210 -51 241 -88 7 -8 24
-23 39 -34 25 -17 32 -18 128 -5 90 11 106 11 133 -2 16 -8 35 -16 42 -17 7
-1 23 -9 37 -19 13 -9 30 -17 36 -17 7 0 14 -6 17 -12 2 -7 23 -23 46 -35 54
-29 63 -12 27 50 -30 51 -33 82 -8 96 16 10 15 10 -3 11 -11 0 -64 15 -117 34
-53 19 -123 37 -155 41 -66 7 -153 25 -168 34 -10 6 -79 25 -200 55 -80 20
-333 63 -415 71 -36 3 -126 19 -200 35 -74 15 -162 33 -195 40 -33 7 -107 23
-165 36 -58 13 -136 30 -175 39 -38 8 -87 19 -108 24 -21 5 -40 5 -43 0z"/>
<path d="M9245 4493 c-100 -19 -185 -121 -185 -223 0 -62 33 -120 87 -155 36
-23 56 -46 84 -100 20 -38 41 -71 46 -72 18 -6 22 98 6 154 -8 29 -19 55 -24
58 -5 4 -9 19 -9 36 0 19 -5 29 -15 29 -9 0 -20 11 -26 24 -17 36 24 106 61
106 49 0 64 -36 30 -72 -25 -28 -26 -41 -1 -33 14 4 25 -1 37 -20 9 -14 20
-25 26 -25 5 0 22 28 38 63 41 85 41 155 3 196 -23 24 -38 30 -83 33 -30 3
-64 3 -75 1z"/>
<path d="M5710 4063 c13 -3 45 -13 70 -23 26 -10 73 -23 105 -29 53 -10 106
-30 175 -65 14 -8 43 -19 65 -26 22 -7 63 -23 92 -36 28 -13 57 -24 62 -24 6
0 11 -4 11 -8 0 -4 22 -16 50 -26 27 -10 67 -30 87 -45 35 -25 73 -44 238
-121 125 -58 152 -70 159 -70 4 0 24 -11 44 -25 32 -22 47 -25 127 -25 86 0
92 -2 127 -30 20 -17 52 -58 72 -93 38 -66 69 -107 82 -107 4 0 16 8 27 17 18
17 20 17 44 -12 l25 -30 -8 35 c-4 19 -8 75 -9 125 l0 89 42 9 c90 18 66 65
-29 54 -26 -3 -48 -2 -48 2 0 5 20 24 45 42 24 19 45 41 45 48 0 8 -12 32 -26
53 -19 27 -38 41 -68 49 -48 13 -169 5 -236 -15 -57 -17 -159 -65 -182 -84
-31 -26 -90 -8 -220 66 -165 94 -192 106 -483 217 -215 83 -212 82 -365 87
-80 3 -134 4 -120 1z m1532 -407 c10 -7 22 -25 27 -39 6 -15 17 -27 26 -27 9
0 15 -9 15 -25 0 -18 -5 -25 -19 -25 -11 0 -23 5 -26 10 -3 6 -21 10 -40 10
-59 0 -116 93 -62 103 42 8 62 6 79 -7z"/>
<path d="M9347 3945 c-4 -8 -17 -19 -29 -24 -25 -9 -39 -49 -58 -158 -12 -69
2 -409 18 -440 5 -10 12 -70 14 -134 4 -79 10 -126 21 -145 23 -43 37 -114 37
-191 0 -72 10 -168 35 -348 8 -60 15 -139 15 -175 1 -75 22 -222 39 -263 6
-16 20 -31 31 -34 11 -3 20 -9 20 -14 0 -5 4 -9 8 -9 8 0 16 83 15 155 0 22
-10 59 -21 81 -12 24 -24 72 -28 117 -4 50 -11 78 -20 81 -8 3 -14 17 -14 31
0 34 28 33 36 -2 3 -16 12 -48 20 -72 8 -25 14 -57 14 -73 0 -15 5 -28 10 -28
6 0 10 7 10 15 0 8 7 15 15 15 28 0 38 40 31 124 -13 162 -68 284 -73 161 -1
-27 -2 -56 -2 -64 -1 -8 -4 -11 -8 -7 -5 4 -8 42 -9 84 -1 58 -6 88 -22 119
-14 27 -22 59 -21 90 l1 48 15 -55 c9 -30 18 -57 19 -59 2 -2 16 9 31 25 27
28 28 33 28 129 0 92 -3 104 -30 149 l-29 49 -9 -26 c-13 -41 -27 -32 -27 18
0 26 -11 71 -25 105 -23 54 -33 120 -19 120 3 0 12 -7 20 -15 9 -8 19 -15 24
-15 28 0 59 126 42 170 -15 38 -62 81 -83 75 -14 -5 -18 2 -24 36 -4 23 -14
57 -21 75 -8 18 -14 60 -14 91 0 56 1 59 31 70 29 11 30 13 27 70 -2 44 -7 59
-19 61 -9 2 -19 -4 -22 -13z"/>
<path d="M5742 3840 c5 -17 19 -35 29 -41 10 -5 19 -17 19 -25 0 -17 103 -124
120 -124 5 0 10 3 10 6 0 9 -101 128 -111 132 -5 2 -9 8 -9 14 0 10 -54 68
-64 68 -3 0 0 -14 6 -30z"/>
<path d="M5945 3630 c-4 -6 -3 -16 3 -22 6 -6 12 -6 17 2 4 6 3 16 -3 22 -6 6
-12 6 -17 -2z"/>
<path d="M7500 3550 c0 -5 5 -10 10 -10 6 0 10 5 10 10 0 6 -4 10 -10 10 -5 0
-10 -4 -10 -10z"/>
<path d="M7291 3151 c-17 -11 -12 -57 18 -166 12 -44 26 -129 31 -190 4 -60
13 -122 18 -136 6 -15 14 -60 18 -100 3 -41 12 -92 19 -114 7 -22 16 -67 20
-100 3 -33 11 -78 17 -99 5 -22 16 -98 23 -170 8 -79 22 -151 34 -181 11 -27
23 -59 26 -69 5 -17 9 -15 32 17 29 41 42 38 49 -14 5 -31 31 -65 42 -55 2 3
-1 36 -8 75 -6 38 -9 80 -5 92 9 27 -9 175 -41 340 -13 69 -24 150 -24 180 -1
54 -4 75 -33 199 -41 174 -48 213 -58 320 -6 63 -12 126 -13 140 -1 30 -27 37
-58 16 -30 -22 -56 -20 -76 4 -12 13 -21 17 -31 11z m149 -313 c6 -24 18 -57
26 -75 8 -17 17 -52 20 -77 6 -43 5 -45 -20 -52 -15 -3 -31 -3 -36 2 -11 13
-40 117 -40 147 0 24 26 97 35 97 2 0 9 -19 15 -42z m80 -499 c0 -10 9 -36 20
-56 13 -25 20 -57 20 -95 0 -32 6 -67 12 -78 9 -14 10 -22 1 -31 -8 -8 -14 -1
-23 26 -9 28 -15 34 -25 25 -17 -14 -29 7 -40 64 -15 87 -15 129 0 153 18 26
35 22 35 -8z"/>
<path d="M9546 2129 c-3 -17 -6 -51 -6 -74 0 -28 -5 -45 -15 -48 -18 -8 -3
-57 26 -83 32 -29 42 -6 36 83 -11 144 -27 192 -41 122z"/>
<path d="M9467 1934 c-11 -42 2 -94 24 -94 14 0 11 74 -5 95 -13 18 -14 18
-19 -1z"/>
</g>
</svg>
